<?xml version="1.0" standalone="no"?>
<!DOCTYPE svg PUBLIC "-//W3C//DTD SVG 1.1//EN" "http://www.w3.org/Graphics/SVG/1.1/DTD/svg11.dtd" >
<svg>
<metadata>
Created by FontForge 20090914 at Mon Jun  1 17:21:31 2020
 By www-data
Copyright 1990-1993 Bitstream Inc.  All rights reserved.
</metadata>
<defs>
<font id="FuturaBT-Light" horiz-adv-x="1024" >
  <font-face 
    font-family="Futura Lt BT"
    font-weight="400"
    font-stretch="normal"
    units-per-em="2048"
    panose-1="2 11 4 2 2 2 4 2 3 3"
    ascent="1638"
    descent="-410"
    x-height="887"
    cap-height="1464"
    bbox="-342 -483 2181 1972"
    underline-thickness="80"
    underline-position="-183"
    unicode-range="U+0020-U+F002"
  />
<missing-glyph horiz-adv-x="1229" 
d="M102 -362v1806h1024v-1806h-1024zM217 -248h795v1577h-795v-1577z" />
    <glyph glyph-name=".notdef" horiz-adv-x="1229" 
d="M102 -362v1806h1024v-1806h-1024zM217 -248h795v1577h-795v-1577z" />
    <glyph glyph-name="space" unicode=" " horiz-adv-x="590" 
 />
    <glyph glyph-name="exclam" unicode="!" horiz-adv-x="635" 
d="M256 303v1194h123v-1194h-123zM215 63c0 28.667 9.83301 53 29.5 73s43.834 30 72.501 30s53 -10 73 -30s30 -44.333 30 -73s-10 -52.834 -30 -72.501s-44.333 -29.5 -73 -29.5s-52.834 9.83301 -72.501 29.5s-29.5 43.834 -29.5 72.501z" />
    <glyph glyph-name="quotedbl" unicode="&#x22;" horiz-adv-x="551" 
d="M451 1434v-553h-86v553h86zM186 1434v-553h-86v553h86z" />
    <glyph glyph-name="numbersign" unicode="#" horiz-adv-x="1575" 
d="M979 866h-270l-99 -282h269zM915 1454l-174 -498h271l176 498h110l-174 -498h322l-31 -90h-323l-101 -282h348l-30 -90h-351l-174 -494h-112l176 494h-270l-179 -494h-110l174 494h-334l31 90h336l100 282h-360l28 90h365l176 498h110z" />
    <glyph glyph-name="dollar" unicode="$" horiz-adv-x="1180" 
d="M555 1352c-58.667 -9.33301 -106.5 -34.166 -143.5 -74.499s-55.5 -87.833 -55.5 -142.5s15.667 -101.834 47 -141.501s82 -76.5 152 -110.5v469zM635 117c72.667 9.33301 129.667 40 171 92s62 119 62 201c0 66 -18.5 123 -55.5 171s-96.167 91.333 -177.5 130v-594z
M635 -168l-80.001 -0.00195312v174c-91.333 0 -170.166 22.5 -236.499 67.5s-119.166 111.833 -158.499 200.5l114 58c20.667 -66 54.5 -117.167 101.5 -153.5s106.833 -57.5 179.5 -63.5v633c-118.667 56.667 -203.667 114.834 -255 174.501s-77 128.834 -77 207.501
c0 90 29.167 164.333 87.5 223s139.833 95.667 244.5 111v101h80v-99c69.333 -8 128.166 -26.667 176.499 -56s87.166 -70 116.499 -122l-105 -57c-18 35.333 -43.333 63.5 -76 84.5s-70 32.833 -112 35.5v-505c136 -64.667 230 -128.5 282 -191.5s78 -141.167 78 -234.5
c0 -110.667 -32.167 -203.5 -96.5 -278.5s-152.166 -121.5 -263.499 -139.5v-170z" />
    <glyph glyph-name="percent" unicode="%" horiz-adv-x="1497" 
d="M967 336c0 -92 14.833 -162.167 44.5 -210.5s72.834 -72.5 129.501 -72.5c56 0 99.333 24.5 130 73.5s46 118.833 46 209.5c0 92 -14.833 161.667 -44.5 209s-73.5 71 -131.5 71c-56.667 0 -99.834 -24 -129.501 -72s-44.5 -117.333 -44.5 -208zM1436 334
c0 -118 -26 -209.667 -78 -275s-124.333 -98 -217 -98s-164.667 32.667 -216 98s-77 157 -77 275s25.667 210 77 276s123.333 99 216 99s165 -33 217 -99s78 -158 78 -276zM182 1106c0 -92 15 -162.167 45 -210.5s73 -72.5 129 -72.5c56.667 0 100.167 24.5 130.5 73.5
s45.5 118.833 45.5 209.5c0 92 -14.833 161.667 -44.5 209s-73.5 71 -131.5 71c-56 0 -99 -24 -129 -72s-45 -117.333 -45 -208zM651 1104c0 -118 -26 -210.001 -78 -276.001s-124.333 -99 -217 -99c-92 0 -163.833 32.833 -215.5 98.5s-77.5 157.834 -77.5 276.501
c0 118 25.833 210 77.5 276s123.5 99 215.5 99c92.667 0 165 -33 217 -99s78 -158 78 -276zM270 -39.001l842 1518h109l-842 -1518h-109z" />
    <glyph glyph-name="ampersand" unicode="&#x26;" horiz-adv-x="1311" 
d="M895 301l-383 467l-66 -47c-98 -71.333 -161.333 -129.833 -190 -175.5s-43 -98.5 -43 -158.5c0 -86 30 -158.667 90 -218s133 -89 219 -89c58 0 117.833 18.333 179.5 55s126.167 92 193.5 166zM551 907l65 45c52 36 90.667 73.667 116 113s38 80.333 38 123
c0 47.333 -17.333 87.166 -52 119.499s-77.334 48.5 -128.001 48.5c-55.333 0 -100.666 -15.667 -135.999 -47s-53 -71.666 -53 -120.999c0 -26 6 -53.667 18 -83s28.667 -58.333 50 -87zM1145 0l-181.997 214.998c-70 -82 -141.5 -142.833 -214.5 -182.5
s-150.5 -59.5 -232.5 -59.5c-126 0 -229.167 38.333 -309.5 115s-120.5 174.334 -120.5 293.001c0 85.333 28.5 165.5 85.5 240.5s149.5 152.5 277.5 232.5l-56 74c-46 60.667 -76.5 110 -91.5 148s-22.5 78 -22.5 120c0 75.333 29.833 137.833 89.5 187.5
s136.167 74.5 229.5 74.5c84.667 0 154 -25.333 208 -76s81 -116 81 -196c0 -66 -21.167 -127 -63.5 -183s-111.5 -114 -207.5 -174l361 -446c31.333 38 61.666 77.333 90.999 118s57 82 83 124l86 -50c-32.667 -53.333 -65.334 -103.166 -98.001 -149.499
s-66.334 -89.833 -101.001 -130.5l252 -295h-145z" />
    <glyph glyph-name="quotesingle" unicode="'" horiz-adv-x="285" 
d="M186 1434v-553h-86v553h86z" />
    <glyph glyph-name="parenleft" unicode="(" horiz-adv-x="559" 
d="M512 1483c-71.333 -144.667 -124.666 -294.333 -159.999 -449s-53 -315.667 -53 -483c0 -183.333 17.667 -353 53 -509s88.666 -301 159.999 -435l-90 -53c-79.333 148 -138.833 305.5 -178.5 472.5s-59.5 343.167 -59.5 528.5c0 183.333 19.833 356 59.5 518
s99.167 315 178.5 459z" />
    <glyph glyph-name="parenright" unicode=")" horiz-adv-x="559" 
d="M47 1483l90 49c80 -144 139.667 -297 179 -459s59 -334.667 59 -518c0 -185.333 -19.833 -361.5 -59.5 -528.5s-99.167 -324.5 -178.5 -472.5l-90 53c72 135.333 125.833 281 161.5 437s53.5 325 53.5 507c0 165.333 -17.833 325.5 -53.5 480.5s-89.5 305.5 -161.5 451.5
z" />
    <glyph glyph-name="asterisk" unicode="*" horiz-adv-x="854" 
d="M162 928l-43 78l233 122l-233 129l43 78l227 -145l-6 274h88l-8 -274l229 143l43 -76l-233 -129l233 -122l-47 -78l-227 139l8 -266h-86l8 264z" />
    <glyph glyph-name="plus" unicode="+" horiz-adv-x="1706" 
d="M893 1221v-570h559v-82h-559v-569h-80v569h-559v82h559v570h80z" />
    <glyph glyph-name="comma" unicode="," horiz-adv-x="590" 
d="M324 254l145 -61l-264 -515l-84 39z" />
    <glyph glyph-name="hyphen" unicode="-" horiz-adv-x="711" 
d="M137 506h436v-129h-436v129z" />
    <glyph glyph-name="period" unicode="." horiz-adv-x="590" 
d="M193 84c0 28.667 9.83301 52.834 29.5 72.501s43.834 29.5 72.501 29.5s52.834 -9.83301 72.501 -29.5s29.5 -43.834 29.5 -72.501s-9.83301 -52.834 -29.5 -72.501s-43.834 -29.5 -72.501 -29.5s-52.834 9.83301 -72.501 29.5s-29.5 43.834 -29.5 72.501z" />
    <glyph glyph-name="slash" unicode="/" horiz-adv-x="825" 
d="M717 1497h108l-716 -1687h-109z" />
    <glyph glyph-name="zero" unicode="0" horiz-adv-x="1180" 
d="M236 717c0 -199.333 31.5 -355.332 94.5 -467.999s150.167 -169 261.5 -169c116 0 204 54.333 264 163s90 268 90 478c0 207.333 -30.5 365.666 -91.5 474.999s-149.833 164 -266.5 164c-110 0 -196.167 -56.833 -258.5 -170.5s-93.5 -271.167 -93.5 -472.5zM588 -38.999
c-150 0 -268.5 67.333 -355.5 202s-130.5 320 -130.5 556c0 236.667 43.5 422.5 130.5 557.5s206.833 202.5 359.5 202.5c152 0 271.167 -67.167 357.5 -201.5s129.5 -320.5 129.5 -558.5c0 -240 -43.167 -426.333 -129.5 -559s-206.833 -199 -361.5 -199z" />
    <glyph glyph-name="one" unicode="1" horiz-adv-x="1180" 
d="M545 0v1331h-264l63 119h330v-1450h-129z" />
    <glyph glyph-name="two" unicode="2" horiz-adv-x="1180" 
d="M1012 115l0.000976562 -115.001h-940l315 346l96 105c260.667 283.333 391 487.333 391 612c0 88 -29.833 159.5 -89.5 214.5s-137.5 82.5 -233.5 82.5c-98 0 -175.5 -30.833 -232.5 -92.5s-85.5 -146.167 -85.5 -253.5h-131v14c0 139.333 41.5 249.333 124.5 330
s195.833 121 338.5 121c137.333 0 247.166 -37.167 329.499 -111.5s123.5 -173.166 123.5 -296.499c0 -156 -115 -356.667 -345 -602l-9 -10l-322 -344h670z" />
    <glyph glyph-name="three" unicode="3" horiz-adv-x="1180" 
d="M242 368c6 -94 35.998 -165.502 89.998 -214.502s130.333 -73.5 229 -73.5c102 0 181.833 27.333 239.5 82s86.5 130.334 86.5 227.001c0 98 -29.167 174.667 -87.5 230s-139.166 83 -242.499 83c-15.333 0 -26.833 -0.166992 -34.5 -0.5s-14.5 -0.5 -20.5 -0.5v126
l41 -3c9.33301 -0.666992 17.333 -1 24 -1c93.333 0 166.166 23.333 218.499 70s78.5 111.334 78.5 194.001s-26.167 149.167 -78.5 199.5s-121.5 75.5 -207.5 75.5c-78.667 0 -142.167 -20.667 -190.5 -62s-77.166 -99.333 -86.499 -174h-143
c11.333 109.333 54.5 195.5 129.5 258.5s171.833 94.5 290.5 94.5c126 0 228 -35 306 -105s117 -161.333 117 -274c0 -83.333 -22.167 -154.666 -66.5 -213.999s-106.5 -101.333 -186.5 -126c88.667 -30 157.167 -77 205.5 -141s72.5 -140.667 72.5 -230
c0 -130 -42 -233.833 -126 -311.5s-197 -116.5 -339 -116.5c-139.333 0 -248.666 35.167 -327.999 105.5s-124.333 171.166 -135 302.499z" />
    <glyph glyph-name="four" unicode="4" horiz-adv-x="1180" 
d="M721 485v660l-461 -660h461zM721 0v371h-660l793 1128v-1014h150v-114h-150v-371h-133z" />
    <glyph glyph-name="five" unicode="5" horiz-adv-x="1180" 
d="M350 883c37.333 16 74.001 28.165 110.001 36.498s71.667 12.5 107 12.5c138.667 0 250.5 -42.5 335.5 -127.5s127.5 -196.167 127.5 -333.5c0 -152.667 -45.667 -276.167 -137 -370.5s-210.666 -141.5 -357.999 -141.5c-103.333 0 -192.333 23.167 -267 69.5
s-136.667 116.833 -186 211.5l104 77c42.667 -81.333 92.667 -141.166 150 -179.499s125.666 -57.5 204.999 -57.5c107.333 0 192.833 34.667 256.5 104s95.5 162.333 95.5 279c0 108.667 -32.5 194.834 -97.5 258.501s-153.5 95.5 -265.5 95.5
c-62 0 -118.333 -8.83301 -169 -26.5s-95.334 -44.167 -134.001 -79.5l-41 4l187 735h592v-113h-500z" />
    <glyph glyph-name="six" unicode="6" horiz-adv-x="1180" 
d="M260 416c0 -103.333 29.832 -185.833 89.499 -247.5s139.167 -92.5 238.5 -92.5c98 0 176.667 32.5 236 97.5s89 151.833 89 260.5c0 97.333 -30 177 -90 239s-137.667 93 -233 93c-97.333 0 -176.666 -32.5 -237.999 -97.5s-92 -149.167 -92 -252.5zM390.999 805
c38.667 24.667 77.168 43.167 115.501 55.5s77.833 18.5 118.5 18.5c125.333 0 227.666 -41.833 306.999 -125.5s119 -192.167 119 -325.5c0 -138.667 -44.833 -251.5 -134.5 -338.5s-205.5 -130.5 -347.5 -130.5c-136 0 -244.333 40.667 -325 122s-121 190.333 -121 327
c0 80 17.5 161.5 52.5 244.5s113.167 208.833 234.5 377.5l342 477l108 -67z" />
    <glyph glyph-name="seven" unicode="7" horiz-adv-x="1180" 
d="M223 18l668 1319h-707v113h899l-737 -1495z" />
    <glyph glyph-name="eight" unicode="8" horiz-adv-x="1180" 
d="M590 80c101.333 0 181.333 28.501 240 85.501s88 134.833 88 233.5c0 100 -29.5 179 -88.5 237s-138.833 87 -239.5 87c-101.333 0 -181 -28.833 -239 -86.5s-87 -136.834 -87 -237.501c0 -99.333 28.833 -177.333 86.5 -234s137.5 -85 239.5 -85zM594 842.001
c84 0 150.332 22.999 198.999 68.999s73 109 73 189s-24.833 143.667 -74.5 191s-116.167 71 -199.5 71s-149.666 -23.667 -198.999 -71s-74 -111 -74 -191c0 -79.333 24.667 -142.166 74 -188.499s116.333 -69.5 201 -69.5zM411.999 788
c-73.333 24 -130.335 65 -171.002 123s-61 127.667 -61 209c0 104.667 38.333 190.667 115 258s175.667 101 297 101c124.667 0 224 -34.167 298 -102.5s111 -159.166 111 -272.499c0 -75.333 -19.667 -139.833 -59 -193.5s-96.666 -94.5 -171.999 -122.5
c88.667 -23.333 158.334 -69.833 209.001 -139.5s76 -153.5 76 -251.5c0 -135.333 -41.167 -241.833 -123.5 -319.5s-195.5 -116.5 -339.5 -116.5s-257.833 38.667 -341.5 116s-125.5 182.666 -125.5 315.999c0 100 25.333 185 76 255s121 116.667 211 140z" />
    <glyph glyph-name="nine" unicode="9" horiz-adv-x="1180" 
d="M915 1022c0 103.333 -29.832 186.167 -89.499 248.5s-138.834 93.5 -237.501 93.5s-177.667 -32.667 -237 -98s-89 -152 -89 -260c0 -98 29.833 -178.167 89.5 -240.5s137.167 -93.5 232.5 -93.5c97.333 0 176.833 32.667 238.5 98s92.5 149.333 92.5 252z
M782.001 633.001c-37.333 -24.667 -74.833 -42.834 -112.5 -54.501s-77.167 -17.5 -118.5 -17.5c-126 0 -228.833 41.5 -308.5 124.5s-119.5 191.167 -119.5 324.5c0 138.667 44.667 251.5 134 338.5s205 130.5 347 130.5c136 0 244.833 -40.833 326.5 -122.5
s122.5 -190.5 122.5 -326.5c0 -83.333 -19.833 -169.666 -59.5 -258.999s-116.167 -210.333 -229.5 -363l-350 -476l-109 66z" />
    <glyph glyph-name="colon" unicode=":" horiz-adv-x="635" 
d="M215 84c0 28.667 9.83301 52.834 29.5 72.501s43.834 29.5 72.501 29.5s53 -9.83301 73 -29.5s30 -43.834 30 -72.501s-10 -52.834 -30 -72.501s-44.333 -29.5 -73 -29.5s-52.834 9.83301 -72.501 29.5s-29.5 43.834 -29.5 72.501zM215 760
c0 28.667 9.83301 52.834 29.5 72.501s43.834 29.5 72.501 29.5s53 -9.83301 73 -29.5s30 -43.834 30 -72.501s-10 -53 -30 -73s-44.333 -30 -73 -30s-52.834 10 -72.501 30s-29.5 44.333 -29.5 73z" />
    <glyph glyph-name="semicolon" unicode=";" horiz-adv-x="635" 
d="M301 760c0 28.667 9.83301 52.834 29.5 72.501s43.834 29.5 72.501 29.5s53 -9.83301 73 -29.5s30 -43.834 30 -72.501s-10 -53 -30 -73s-44.333 -30 -73 -30s-52.834 10 -72.501 30s-29.5 44.333 -29.5 73zM332 254l145 -61l-264 -515l-84 39z" />
    <glyph glyph-name="less" unicode="&#x3c;" horiz-adv-x="1706" 
d="M1442 1034l-1045 -424l1045 -424v-88l-1178 482v61l1178 483v-90z" />
    <glyph glyph-name="equal" unicode="=" horiz-adv-x="1706" 
d="M1452 469v-82h-1198v82h1198zM1452 831v-79h-1198v79h1198z" />
    <glyph glyph-name="greater" unicode="&#x3e;" horiz-adv-x="1706" 
d="M1442 641v-61l-1178 -482v88l1045 424l-1045 424v90z" />
    <glyph glyph-name="question" unicode="?" horiz-adv-x="1053" 
d="M401 63c0 28.667 10 53 30 73s44.333 30 73 30s52.834 -10 72.501 -30s29.5 -44.333 29.5 -73s-9.83301 -52.834 -29.5 -72.501s-43.834 -29.5 -72.501 -29.5s-53 9.83301 -73 29.5s-30 43.834 -30 72.501zM291 1096l-119.001 -0.000976562v32
c0 114.667 32.333 204.834 97 270.501s153.334 98.5 266.001 98.5c101.333 0 182.166 -30 242.499 -90s90.5 -140.667 90.5 -242c0 -74 -16 -136 -48 -186s-97 -106.667 -195 -170l-72 -45c-132.667 -82 -199 -159.333 -199 -232c0 -48 15.333 -86.5 46 -115.5
s71.334 -43.5 122.001 -43.5c59.333 0 105.333 15.5 138 46.5s49 74.833 49 131.5v18h110v-24c0 -90 -26.667 -159 -80 -207s-130.333 -72 -231 -72c-82.667 0 -150.167 25 -202.5 75s-78.5 114.667 -78.5 194c0 58 15.333 109.167 46 153.5s87.667 94.166 171 149.499
l73 46c150.667 95.333 226 186.333 226 273c0 64.667 -19.333 116.334 -58 155.001s-91 58 -157 58c-76 0 -134.5 -23.333 -175.5 -70s-61.5 -112.667 -61.5 -198v-6z" />
    <glyph glyph-name="at" unicode="@" horiz-adv-x="2048" 
d="M1303 827l61.001 128.998h80l-137 -553c-6.66699 -24 -11.834 -45.5 -15.501 -64.5s-5.5 -33.5 -5.5 -43.5c0 -29.333 10.167 -52 30.5 -68s49.166 -24 86.499 -24c32 0 65.333 6.5 100 19.5s69 31.833 103 56.5c67.333 49.333 121.333 118.333 162 207
s61 182.667 61 282c0 182 -66.5 328.5 -199.5 439.5s-308.167 166.5 -525.5 166.5c-112 0 -215.5 -16 -310.5 -48s-181.167 -80 -258.5 -144c-102.667 -85.333 -180 -184.333 -232 -297s-78 -237.667 -78 -375c0 -218 73.833 -392 221.5 -522s344.834 -195 591.501 -195
c107.333 0 215.333 16.833 324 50.5s208.334 81.167 299.001 142.5l29 -45c-97.333 -73.333 -200.166 -128.333 -308.499 -165s-221.5 -55 -339.5 -55c-124.667 0 -239 15.5 -343 46.5s-196.333 77.167 -277 138.5c-101.333 76.667 -176.833 165.834 -226.5 267.501
s-74.5 217.834 -74.5 348.501c0 108 16.833 210.333 50.5 307s82.834 185 147.501 265c96 116.667 211.167 205.167 345.5 265.5s284.166 90.5 449.499 90.5c106.667 0 208.167 -14.667 304.5 -44s179.166 -70.666 248.499 -123.999c85.333 -65.333 150 -140.833 194 -226.5
s66 -178.167 66 -277.5c0 -112.667 -21 -215.334 -63 -308.001s-102.333 -170 -181 -232c-44.667 -36 -93.167 -63.5 -145.5 -82.5s-105.5 -28.5 -159.5 -28.5c-63.333 0 -111.166 12.167 -143.499 36.5s-48.5 60.5 -48.5 108.5c0 8 1 19.333 3 34c0.666992 2 1 3.66699 1 5
c-32.667 -58.667 -74.334 -104 -125.001 -136s-106 -48 -166 -48c-102.667 0 -180.5 27.667 -233.5 83s-79.5 136.333 -79.5 243c0 152 44.833 280.667 134.5 386s198.5 158 326.5 158c63.333 0 116.666 -14.333 159.999 -43s75.333 -71 96 -127zM1219 466.998l63 254
c-14.667 66 -41.834 116.333 -81.501 151s-90.167 52 -151.5 52c-101.333 0 -186.5 -46 -255.5 -138s-103.5 -205.333 -103.5 -340c0 -76.667 19.167 -136.667 57.5 -180s91.5 -65 159.5 -65c74 0 139.333 24.167 196 72.5s95.334 112.833 116.001 193.5z" />
    <glyph glyph-name="A" unicode="A" horiz-adv-x="1223" 
d="M356 610h510l-250 637zM-18 0l643 1522l616 -1522h-145l-187 496h-598l-194 -496h-135z" />
    <glyph glyph-name="B" unicode="B" horiz-adv-x="1133" 
d="M315 813h166c122 0 208.167 20 258.5 60s75.5 106.667 75.5 200c0 100.667 -24.5 171.667 -73.5 213s-135.833 62 -260.5 62h-166v-535zM315 115h169.999c96.667 0 163.334 4 200.001 12s67.667 21.667 93 41c31.333 24 56.333 57.167 75 99.5s28 87.5 28 135.5
c0 58.667 -10.333 110.167 -31 154.5s-49.334 77.5 -86.001 99.5c-25.333 14.667 -55.166 25.167 -89.499 31.5s-87.833 9.5 -160.5 9.5h-29h-170v-583zM181.999 0l0.000976562 1464h254c111.333 0 191.666 -5.33301 240.999 -16s91.333 -29 126 -55
c48.667 -36.667 85.667 -81.5 111 -134.5s38 -111.5 38 -175.5c0 -78 -20.333 -144.333 -61 -199s-96.667 -90.667 -168 -108c94 -14 167.667 -51.667 221 -113s80 -139 80 -233c0 -68.667 -10.333 -129.667 -31 -183s-52 -99.333 -94 -138
c-42.667 -40 -94 -68.167 -154 -84.5s-162.333 -24.5 -307 -24.5h-256z" />
    <glyph glyph-name="C" unicode="C" horiz-adv-x="1464" 
d="M1358 1196c-72.667 62.667 -147.004 109.001 -223.004 139.001s-156 45 -240 45c-189.333 0 -343.166 -60 -461.499 -180s-177.5 -276.333 -177.5 -469c0 -96.667 14.5 -183.667 43.5 -261s73.167 -146 132.5 -206c58.667 -58.667 125.834 -103.334 201.501 -134.001
s156.834 -46 243.501 -46c84 0 166 14.333 246 43s155.667 71 227 127v-156c-72 -44 -148.167 -77.833 -228.5 -101.5s-159.833 -35.5 -238.5 -35.5c-106 0 -207.333 19 -304 57s-179.667 91.333 -249 160c-71.333 70.667 -125.333 152.667 -162 246
s-55 195.666 -55 306.999c0 109.333 18.833 211.333 56.5 306s91.834 176.334 162.501 245.001c68.667 67.333 151.5 120 248.5 158s197.833 57 302.5 57c93.333 0 179.833 -12.833 259.5 -38.5s152.167 -64.167 217.5 -115.5z" />
    <glyph glyph-name="D" unicode="D" horiz-adv-x="1427" 
d="M315 115l187.002 0.00195312c151.333 0 258.666 8.5 321.999 25.5s117 45.833 161 86.5c61.333 57.333 107.666 128.666 138.999 213.999s47 182.666 47 291.999c0 112 -15.833 210.667 -47.5 296s-78.5 155.333 -140.5 210c-46.667 42 -103.667 71.667 -171 89
s-185 26 -353 26h-25h-119v-1239zM182.002 0.00195312l0.000976562 1464h228c203.333 0 347.666 -10 432.999 -30s158.666 -54.333 219.999 -103c81.333 -64.667 143.333 -148 186 -250s64 -218.667 64 -350s-21.333 -248.166 -64 -350.499s-104 -184.166 -184 -245.499
c-63.333 -48.667 -135.666 -83.334 -216.999 -104.001s-212.333 -31 -393 -31h-45h-228z" />
    <glyph glyph-name="E" unicode="E" horiz-adv-x="1051" 
d="M182 0v1464h725v-125h-592v-458h592v-125h-592v-631h592v-125h-725z" />
    <glyph glyph-name="F" unicode="F" horiz-adv-x="1026" 
d="M182 0v1464h725v-125h-592v-458h570v-125h-570v-756h-133z" />
    <glyph glyph-name="G" unicode="G" horiz-adv-x="1673" 
d="M1382 1096c-59.333 92 -132.335 161.668 -219.002 209.001s-184.334 71 -293.001 71c-181.333 0 -329 -61.333 -443 -184s-171 -281.667 -171 -477c0 -87.333 15.167 -169.666 45.5 -246.999s74.5 -146 132.5 -206c58.667 -59.333 124.334 -103.833 197.001 -133.5
s152.334 -44.5 239.001 -44.5c164 0 297.5 48.333 400.5 145s155.833 223 158.5 379h-505v115h651v-16c0 -233.333 -63.667 -416 -191 -548s-302.666 -198 -525.999 -198c-222 0 -401.667 70.667 -539 212s-206 326.666 -206 555.999c0 105.333 17.333 204.833 52 298.5
s84.667 175.167 150 244.5c70.667 75.333 150.5 131.666 239.5 168.999s188.167 56 297.5 56c148.667 0 276 -26.833 382 -80.5s187.667 -132.5 245 -236.5z" />
    <glyph glyph-name="H" unicode="H" horiz-adv-x="1427" 
d="M182 0v1464h133v-594h797v594h133v-1464h-133v756h-797v-756h-133z" />
    <glyph glyph-name="I" unicode="I" horiz-adv-x="498" 
d="M182 0v1464h133v-1464h-133z" />
    <glyph glyph-name="J" unicode="J" horiz-adv-x="764" 
d="M467 401v1063h133v-1149c0 -116 -26.333 -204 -79 -264s-130 -90 -232 -90c-62 0 -116.833 12.833 -164.5 38.5s-87.167 63.5 -118.5 113.5l94 86c28 -38 57.167 -66 87.5 -84s62.833 -27 97.5 -27c65.333 0 112 23.5 140 70.5s42 127.833 42 242.5z" />
    <glyph glyph-name="K" unicode="K" horiz-adv-x="1176" 
d="M182 0v1464h133v-686l662 686h174l-694 -700l727 -764h-193l-676 743v-743h-133z" />
    <glyph glyph-name="L" unicode="L" horiz-adv-x="846" 
d="M182 0v1464h133v-1339h502v-125h-635z" />
    <glyph glyph-name="M" unicode="M" horiz-adv-x="1712" 
d="M850 -57l-514 1175l-111 -1118h-137l199 1526l561 -1303l582 1303l188 -1526h-137l-109 1118z" />
    <glyph glyph-name="N" unicode="N" horiz-adv-x="1526" 
d="M182 0v1526l1037 -1225v1163h124v-1507l-1036 1227v-1184h-125z" />
    <glyph glyph-name="O" unicode="O" horiz-adv-x="1792" 
d="M895 80c86.667 0 168.669 16.001 246.002 48.001s147 78.667 209 140c60.667 62 107.167 132.5 139.5 211.5s48.5 162.167 48.5 249.5c0 88 -16 171.167 -48 249.5s-78.667 148.833 -140 211.5c-60.667 61.333 -129.834 108 -207.501 140s-160.167 48 -247.5 48
c-86.667 0 -168.334 -16 -245.001 -48s-146 -78.667 -208 -140c-61.333 -63.333 -108 -133.833 -140 -211.5s-48 -160.834 -48 -249.501c0 -88 16 -171.167 48 -249.5s78.667 -148.833 140 -211.5c61.333 -62 130 -108.833 206 -140.5s158.333 -47.5 247 -47.5z
M1679 729.001c0 -103.333 -19.667 -201.499 -59 -294.499s-96 -175.833 -170 -248.5c-75.333 -73.333 -160.333 -129.166 -255 -167.499s-194.667 -57.5 -300 -57.5s-205.166 19.167 -299.499 57.5s-178.833 94.166 -253.5 167.499c-74.667 74 -131.5 157.167 -170.5 249.5
s-58.5 190.166 -58.5 293.499c0 104.667 19.5 203.5 58.5 296.5s95.833 176.5 170.5 250.5c73.333 72.667 157 127.667 251 165s194.667 56 302 56c108 0 209.167 -18.833 303.5 -56.5s178.166 -92.5 251.499 -164.5c74.667 -74 131.5 -157.5 170.5 -250.5
s58.5 -191.833 58.5 -296.5z" />
    <glyph glyph-name="P" unicode="P" 
d="M182 0l-0.000976562 1464h267c105.333 0 182.833 -5.66699 232.5 -17s92.834 -30 129.501 -56c46 -33.333 81.667 -79 107 -137s38 -122.333 38 -193c0 -139.333 -39 -241.5 -117 -306.5s-201.333 -97.5 -370 -97.5h-154v-657h-133zM314.999 774l91.001 0.000976562
c161.333 0 269.833 20.5 325.5 61.5s83.5 112.833 83.5 215.5c0 43.333 -6.33301 83.166 -19 119.499s-31.667 68.833 -57 97.5c-26 29.333 -61.333 50 -106 62s-120.334 18 -227.001 18h-91v-574z" />
    <glyph glyph-name="Q" unicode="Q" horiz-adv-x="1792" 
d="M926 600l163.999 0.00195312l272 -317c58.667 63.333 102.667 132.5 132 207.5s44 155.167 44 240.5c0 88 -16.167 171.167 -48.5 249.5s-78.833 148.166 -139.5 209.499s-130.167 108.333 -208.5 141s-160.5 49 -246.5 49c-85.333 0 -166.666 -16.167 -243.999 -48.5
s-147 -79.5 -209 -141.5c-60.667 -62 -106.834 -131.833 -138.501 -209.5s-47.5 -160.834 -47.5 -249.501s15.833 -172 47.5 -250s77.834 -147.667 138.501 -209c62 -61.333 131.667 -108 209 -140s160 -48 248 -48c70.667 0 138 10.5 202 31.5s119 50.833 165 89.5z
M1692 -101.998l-161.997 -0.000976562l-178 206c-70.667 -45.333 -144.334 -79.166 -221.001 -101.499s-159.334 -33.5 -248.001 -33.5c-103.333 0 -201.333 18.833 -294 56.5s-175 91.834 -247 162.501c-74.667 74 -131.5 157.167 -170.5 249.5
s-58.5 190.166 -58.5 293.499c0 104 19.5 202.333 58.5 295s95.833 175.334 170.5 248.001c73.333 72 157.333 127.167 252 165.5s195 57.5 301 57.5s206.667 -19.167 302 -57.5s179.666 -93.5 252.999 -165.5c74.667 -72.667 131.5 -155.334 170.5 -248.001
s58.5 -191 58.5 -295c0 -106.667 -19.5 -205.167 -58.5 -295.5s-97.833 -173.5 -176.5 -249.5z" />
    <glyph glyph-name="R" unicode="R" horiz-adv-x="1081" 
d="M315 1348l0.000976562 -541.001h134c124 0 210.5 19.833 259.5 59.5s73.5 107.167 73.5 202.5c0 100.667 -25.333 172.334 -76 215.001s-136.334 64 -257.001 64h-134zM1071 -0.000976562h-161.999l-514 698h-80v-698h-133v1464h269c158.667 0 277.5 -33 356.5 -99
s118.5 -166 118.5 -300c0 -114 -33.833 -203.667 -101.5 -269s-160.834 -98 -279.501 -98z" />
    <glyph glyph-name="S" unicode="S" horiz-adv-x="1020" 
d="M70 246l114.003 60.999c21.333 -72 58.166 -127.833 110.499 -167.5s115.166 -59.5 188.499 -59.5c92.667 0 165 27.333 217 82s78 130.334 78 227.001c0 70.667 -17.5 129.334 -52.5 176.001s-110.167 100.667 -225.5 162c-147.333 78 -245.333 146.667 -294 206
s-73 130.666 -73 213.999c0 104 35.167 188.667 105.5 254s161.5 98 273.5 98c73.333 0 137.166 -15.5 191.499 -46.5s98.5 -77.5 132.5 -139.5l-103 -62c-21.333 42 -51.5 74 -90.5 96s-85.167 33 -138.5 33c-72 0 -129.333 -21.167 -172 -63.5s-64 -99.5 -64 -171.5
c0 -102.667 84.667 -198.334 254 -287.001l70 -37c124.667 -68.667 208 -133.5 250 -194.5s63 -140.167 63 -237.5c0 -131.333 -38.333 -235.5 -115 -312.5s-181 -115.5 -313 -115.5c-96 0 -178.167 23.833 -246.5 71.5s-121.833 118.834 -160.5 213.501z" />
    <glyph glyph-name="T" unicode="T" horiz-adv-x="1018" 
d="M442 0v1339h-403v125h940v-125h-404v-1339h-133z" />
    <glyph glyph-name="U" unicode="U" horiz-adv-x="1417" 
d="M176 1464h131v-956c0 -144.667 33 -252.167 99 -322.5s167 -105.5 303 -105.5c134 0 234 35.167 300 105.5s99 177.833 99 322.5v956h133v-913c0 -198 -44 -345.833 -132 -443.5s-221.333 -146.5 -400 -146.5c-179.333 0 -313 48.833 -401 146.5s-132 245.5 -132 443.5
v913z" />
    <glyph glyph-name="V" unicode="V" horiz-adv-x="1128" 
d="M555 -57l-573 1521h153l422 -1192l444 1192h146z" />
    <glyph glyph-name="W" unicode="W" horiz-adv-x="1839" 
d="M530 -57l-505 1521h139l366 -1169l390 1227l405 -1217l352 1159h138l-490 -1521l-405 1243z" />
    <glyph glyph-name="X" unicode="X" horiz-adv-x="991" 
d="M121 0h-146l447 770l-404 694h150l330 -581l333 581h144l-404 -690l445 -774h-148l-372 649z" />
    <glyph glyph-name="Y" unicode="Y" horiz-adv-x="1118" 
d="M496 0v674l-486 790h160l393 -671l395 671h152l-481 -790v-674h-133z" />
    <glyph glyph-name="Z" unicode="Z" horiz-adv-x="1147" 
d="M25 0l870 1343h-743v121h970l-866 -1341h778v-123h-1009z" />
    <glyph glyph-name="bracketleft" unicode="[" horiz-adv-x="559" 
d="M221 1497h291v-98h-174v-1712h174v-99h-291v1909z" />
    <glyph glyph-name="backslash" unicode="\" horiz-adv-x="825" 
d="M717 -190l-717 1687h109l716 -1687h-108z" />
    <glyph glyph-name="bracketright" unicode="]" horiz-adv-x="559" 
d="M338 1497v-1909h-291v99h176v1712h-176v98h291z" />
    <glyph glyph-name="asciicircum" unicode="^" horiz-adv-x="2048" 
d="M1081 1458l541 -557h-125l-473 469l-475 -469h-125l539 557h118z" />
    <glyph glyph-name="underscore" unicode="_" 
d="M1024 -403v-80h-1024v80h1024z" />
    <glyph glyph-name="grave" unicode="`" 
d="M645 1030h-94l-283 350h164z" />
    <glyph glyph-name="a" unicode="a" horiz-adv-x="1108" 
d="M221 434c0 -114.667 25.833 -203.001 77.5 -265.001s125.5 -93 221.5 -93c93.333 0 166.833 33.833 220.5 101.5s80.5 160.834 80.5 279.501c0 108.667 -26.667 194.167 -80 256.5s-126.333 93.5 -219 93.5s-166 -33.167 -220 -99.5s-81 -157.5 -81 -273.5z
M819 -0.000976562v162c-29.333 -65.333 -70.5 -115.166 -123.5 -149.499s-115.5 -51.5 -187.5 -51.5c-127.333 0 -229.833 43.667 -307.5 131s-116.5 202.666 -116.5 345.999c0 142 38.333 257.833 115 347.5s175.667 134.5 297 134.5c75.333 0 140.5 -16.5 195.5 -49.5
s97.5 -81.5 127.5 -145.5v162h123v-887h-123z" />
    <glyph glyph-name="b" unicode="b" horiz-adv-x="1108" 
d="M883 434c0 116 -26.998 207.168 -80.998 273.501s-127.333 99.5 -220 99.5s-165.334 -31.167 -218.001 -93.5s-79 -147.833 -79 -256.5c0 -118.667 26.833 -211.834 80.5 -279.501s127.167 -101.5 220.5 -101.5c95.333 0 168.666 30.833 219.999 92.5
s77 150.167 77 265.5zM287.002 0.000976562l-122.999 -0.000976562v1550h123v-825c30 64 72.167 112.5 126.5 145.5s119.166 49.5 194.499 49.5c121.333 0 220.333 -44.833 297 -134.5s115 -205.5 115 -347.5c0 -143.333 -38.833 -258.666 -116.5 -345.999
s-180.167 -131 -307.5 -131c-71.333 0 -133.333 17 -186 51s-93.667 84 -123 150v-162z" />
    <glyph glyph-name="c" unicode="c" horiz-adv-x="934" 
d="M854 725c-41.333 28.667 -85.333 50.165 -132 64.498s-94.667 21.5 -144 21.5c-110 0 -197.667 -35.167 -263 -105.5s-98 -164.166 -98 -281.499c0 -104 33.833 -189.667 101.5 -257s154.167 -101 259.5 -101c48 0 96.5 8.33301 145.5 25s97.167 41.667 144.5 75v-135
c-43.333 -24.667 -91.333 -43.167 -144 -55.5s-109 -18.5 -169 -18.5c-135.333 0 -246.333 44.5 -333 133.5s-130 202.833 -130 341.5c0 144.667 45.167 262.167 135.5 352.5s207.833 135.5 352.5 135.5c53.333 0 103.5 -5.16699 150.5 -15.5s88.833 -25.166 125.5 -44.499z
" />
    <glyph glyph-name="d" unicode="d" horiz-adv-x="1108" 
d="M225 434c0 -114.667 25.834 -203.001 77.501 -265.001s125.5 -93 221.5 -93c92.667 0 165.667 33.833 219 101.5s80 160.834 80 279.501c0 108.667 -26.333 194.167 -79 256.5s-125.334 93.5 -218.001 93.5s-166 -33.167 -220 -99.5s-81 -157.5 -81 -273.5z
M821.001 -0.000976562l0.000976562 162.001c-29.333 -66 -70.333 -116 -123 -150s-114.667 -51 -186 -51c-127.333 0 -229.833 43.667 -307.5 131s-116.5 202.666 -116.5 345.999c0 142 38.333 257.833 115 347.5s175.667 134.5 297 134.5
c75.333 0 140.166 -16.5 194.499 -49.5s96.5 -81.5 126.5 -145.5v825h125v-1550h-125z" />
    <glyph glyph-name="e" unicode="e" horiz-adv-x="1018" 
d="M780 545c-6 81.333 -33 144.333 -81 189s-113 67 -195 67c-74.667 0 -137.167 -23.333 -187.5 -70s-79.5 -108.667 -87.5 -186h551zM926 440l-705 0.000976562c3.33301 -114.667 32 -204.667 86 -270s126.333 -98 217 -98c65.333 0 122.666 17.667 171.999 53
s90.333 88.666 123 159.999l113 -62c-45.333 -90 -100.833 -156.167 -166.5 -198.5s-146.167 -63.5 -241.5 -63.5c-130 0 -235.167 43.5 -315.5 130.5s-120.5 201.167 -120.5 342.5c0 145.333 39.833 262.666 119.5 351.999s183.834 134 312.501 134
c122.667 0 221 -41.167 295 -123.5s111 -192.166 111 -329.499v-27z" />
    <glyph glyph-name="f" unicode="f" horiz-adv-x="530" 
d="M193 0v782.001h-166v105h166v256c0 178 16.667 293.5 50 346.5s94.333 79.5 183 79.5c22 0 43 -1.83301 63 -5.5s38.667 -8.83398 56 -15.501l-23 -108c-16 8 -31.5 14 -46.5 18s-28.833 6 -41.5 6c-43.333 0 -74 -17.167 -92 -51.5s-27 -97.5 -27 -189.5v-336h195v-105
h-195v-782h-122z" />
    <glyph glyph-name="g" unicode="g" horiz-adv-x="1108" 
d="M944 887l-0.00195312 -733.002c0 -116.667 -3.16699 -205.667 -9.5 -267s-16.833 -107 -31.5 -137c-30.667 -66 -77.667 -115.167 -141 -147.5s-143.333 -48.5 -240 -48.5c-118 0 -209.833 22.833 -275.5 68.5s-105.5 114.834 -119.5 207.501h154
c10 -54.667 36.167 -96 78.5 -124s99.833 -42 172.5 -42c54.667 0 103.834 9.66699 147.501 29s76.5 46 98.5 80c14.667 22 25.167 47.5 31.5 76.5s9.5 73.833 9.5 134.5v47v133c-27.333 -63.333 -69.166 -113 -125.499 -149s-120.833 -54 -193.5 -54
c-124.667 0 -224.167 43.333 -298.5 130s-111.5 203 -111.5 349c0 144.667 38 260.834 114 348.501s176.667 131.5 302 131.5c70 0 133.5 -18.167 190.5 -54.5s97.833 -84.5 122.5 -144.5v166h125zM519.998 806.998c-92 0 -164.499 -32.832 -217.499 -98.499
s-79.5 -155.834 -79.5 -270.501c0 -114 25.167 -202.833 75.5 -266.5s120.166 -95.5 209.499 -95.5c94.667 0 170.5 33.667 227.5 101s85.5 158 85.5 272c0 112 -26.667 199.667 -80 263s-127 95 -221 95z" />
    <glyph glyph-name="h" unicode="h" horiz-adv-x="1067" 
d="M164 0v1550h117v-800c36 56.667 80.167 99.167 132.5 127.5s112.5 42.5 180.5 42.5c100.667 0 179 -28 235 -84s84 -134 84 -234v-602h-125v547c0 88.667 -18.5 154.5 -55.5 197.5s-94.167 64.5 -171.5 64.5c-94 0 -163.167 -27.833 -207.5 -83.5
s-66.5 -143.167 -66.5 -262.5v-463h-123z" />
    <glyph glyph-name="i" unicode="i" horiz-adv-x="471" 
d="M141 1233c0 26 9.33203 48.167 27.999 66.5s41 27.5 67 27.5s48.5 -9.16699 67.5 -27.5s28.5 -40.5 28.5 -66.5c0 -26.667 -9.16699 -49 -27.5 -67s-41.166 -27 -68.499 -27c-26.667 0 -49.167 9 -67.5 27s-27.5 40.333 -27.5 67zM171.999 0v887h127v-887h-127z" />
    <glyph glyph-name="j" unicode="j" horiz-adv-x="471" 
d="M141 1233c0 26 9.33203 48.167 27.999 66.5s41 27.5 67 27.5s48.5 -9.16699 67.5 -27.5s28.5 -40.5 28.5 -66.5c0 -26.667 -9.16699 -49 -27.5 -67s-41.166 -27 -68.499 -27c-26.667 0 -49.167 9 -67.5 27s-27.5 40.333 -27.5 67zM171.999 -446v1333h127v-1333h-127z" />
    <glyph glyph-name="k" unicode="k" horiz-adv-x="938" 
d="M164 0v1550h123v-1056l442 393h170l-475 -398l510 -489h-170l-477 459v-459h-123z" />
    <glyph glyph-name="l" unicode="l" horiz-adv-x="471" 
d="M299 0h-127v1550h127v-1550z" />
    <glyph glyph-name="m" unicode="m" horiz-adv-x="1616" 
d="M287 0h-122.998v887h123v-139c29.333 56 68 98.667 116 128s103.333 44 166 44c64.667 0 119.834 -14.833 165.501 -44.5s80.834 -73.167 105.501 -130.5c35.333 58.667 78.666 102.5 129.999 131.5s111 43.5 179 43.5c94 0 168 -28.5 222 -85.5s81 -135.167 81 -234.5
v-600h-123v551c0 86.667 -17.833 152 -53.5 196s-88.834 66 -159.501 66c-84.667 0 -146.834 -27.667 -186.501 -83s-59.5 -143 -59.5 -263v-467h-122v551c0 90.667 -17 157 -51 199s-86.667 63 -158 63c-86.667 0 -150.334 -28 -191.001 -84s-61 -143.333 -61 -262v-467z
" />
    <glyph glyph-name="n" unicode="n" horiz-adv-x="1067" 
d="M164 0v887h117v-137c36 56.667 80.167 99.167 132.5 127.5s112.5 42.5 180.5 42.5c100.667 0 179 -28 235 -84s84 -134 84 -234v-602h-125v547c0 88.667 -18.5 154.5 -55.5 197.5s-94.167 64.5 -171.5 64.5c-94 0 -163.167 -27.833 -207.5 -83.5
s-66.5 -143.167 -66.5 -262.5v-463h-123z" />
    <glyph glyph-name="o" unicode="o" horiz-adv-x="1143" 
d="M571 76c97.333 0 179.833 35.167 247.5 105.5s101.5 156.5 101.5 258.5c0 103.333 -33.667 190 -101 260s-150 105 -248 105c-97.333 0 -179.666 -35 -246.999 -105s-101 -156.667 -101 -260c0 -102 33.667 -188.167 101 -258.5s149.666 -105.5 246.999 -105.5zM567 -39
c-63.333 0 -123.998 12.502 -181.998 37.502s-110.667 60.833 -158 107.5c-44.667 44 -78.667 94.667 -102 152s-35 118.666 -35 183.999c0 64.667 12 126 36 184s58.333 109.333 103 154c45.333 45.333 97 80 155 104s119 36 183 36c65.333 0 127.5 -12 186.5 -36
s111.5 -58.667 157.5 -104s81.167 -97 105.5 -155s36.5 -119 36.5 -183s-12 -124.833 -36 -182.5s-58.667 -108.834 -104 -153.501c-46.667 -46.667 -99.834 -82.5 -159.501 -107.5s-121.834 -37.5 -186.501 -37.5z" />
    <glyph glyph-name="p" unicode="p" horiz-adv-x="1108" 
d="M883 438c0 114.667 -26.167 204.833 -78.5 270.5s-124.5 98.5 -216.5 98.5c-94.667 0 -168.834 -31.833 -222.501 -95.5s-80.5 -151.167 -80.5 -262.5c0 -113.333 28.833 -203.833 86.5 -271.5s133.834 -101.5 228.501 -101.5c89.333 0 158.833 31.833 208.5 95.5
s74.5 152.5 74.5 266.5zM164 -446.001l0.000976562 1333h119v-166c34 64 78.333 113.167 133 147.5s116 51.5 184 51.5c124.667 0 225.167 -43.833 301.5 -131.5s114.5 -203.834 114.5 -348.501c0 -145.333 -37.333 -261.5 -112 -348.5s-174 -130.5 -298 -130.5
c-71.333 0 -134.333 17.167 -189 51.5s-99.334 84.833 -134.001 151.5v-610h-119z" />
    <glyph glyph-name="q" unicode="q" horiz-adv-x="1108" 
d="M520 807c-92 0 -164.499 -32.832 -217.499 -98.499s-79.5 -155.834 -79.5 -270.501c0 -114 25.167 -202.833 75.5 -266.5s120.166 -95.5 209.499 -95.5c94.667 0 170.5 33.667 227.5 101s85.5 158 85.5 272c0 112 -26.667 199.667 -80 263s-127 95 -221 95z
M944.001 -445.999l-118.999 -0.000976562v610c-34.667 -66.667 -79.5 -117.167 -134.5 -151.5s-118.5 -51.5 -190.5 -51.5c-124 0 -223.333 43.5 -298 130.5s-112 203.167 -112 348.5c0 144.667 38 260.834 114 348.501s176.667 131.5 302 131.5
c68.667 0 130.667 -17.333 186 -52s99.666 -83.667 132.999 -147v166h119v-1333z" />
    <glyph glyph-name="r" unicode="r" horiz-adv-x="645" 
d="M287 709c45.333 76.667 89.8311 130.999 133.498 162.999s94.5 48 152.5 48c17.333 0 34.833 -1.66699 52.5 -5s35.167 -8 52.5 -14l-40 -116c-13.333 4 -27.166 7.33301 -41.499 10s-28.166 4 -41.499 4c-74 0 -137.167 -34.667 -189.5 -104
s-78.5 -155.666 -78.5 -258.999v-436h-123v887h123v-178z" />
    <glyph glyph-name="s" unicode="s" horiz-adv-x="782" 
d="M63 158l116.999 67.001c19.333 -49.333 47.333 -86.5 84 -111.5s81.667 -37.5 135 -37.5c52 0 93.333 13.167 124 39.5s46 61.5 46 105.5c0 68 -60.333 125.667 -181 173c-12.667 4.66699 -22.667 8.66699 -30 12c-93.333 36.667 -158.666 74.5 -195.999 113.5
s-56 87.167 -56 144.5c0 75.333 26.667 137.166 80 185.499s122.333 72.5 207 72.5c72 0 133.333 -15.667 184 -47s87.667 -76 111 -134l-113 -63c-14 42 -37.333 74 -70 96s-72.667 33 -120 33c-42.667 0 -77.834 -12.5 -105.501 -37.5s-41.5 -56.167 -41.5 -93.5
c0 -36.667 13.667 -67 41 -91s84 -50.333 170 -79c97.333 -34 162.833 -71 196.5 -111s50.5 -95.333 50.5 -166c0 -81.333 -29 -146.333 -87 -195s-136 -73 -234 -73c-75.333 0 -140.166 17.167 -194.499 51.5s-93.5 82.833 -117.5 145.5z" />
    <glyph glyph-name="t" unicode="t" horiz-adv-x="508" 
d="M190 782h-163v105h163v364h121v-364h178v-105h-178v-782h-121v782z" />
    <glyph glyph-name="u" unicode="u" horiz-adv-x="1079" 
d="M287 887l0.000976562 -443c0 -134.667 19.167 -229.667 57.5 -285s103.166 -83 194.499 -83c90.667 0 155.667 28 195 84s59 150.667 59 284v443h122v-506c0 -138 -31.667 -242.5 -95 -313.5s-156.333 -106.5 -279 -106.5c-123.333 0 -217 35.5 -281 106.5
s-96 175.5 -96 313.5v506h123z" />
    <glyph glyph-name="v" unicode="v" horiz-adv-x="874" 
d="M31 887h135l272 -672l271 672h137l-408 -944z" />
    <glyph glyph-name="w" unicode="w" horiz-adv-x="1327" 
d="M379 -57l-354 944h129l231 -639l279 686l278 -686l232 639h129l-355 -944l-282 706z" />
    <glyph glyph-name="x" unicode="x" horiz-adv-x="807" 
d="M31 887h153l217 -326l217 326h150l-299 -426l330 -461h-152l-248 358l-245 -358h-154l332 461z" />
    <glyph glyph-name="y" unicode="y" horiz-adv-x="825" 
d="M43 887h131l254 -694l234 694h131l-459 -1333h-127l155 452z" />
    <glyph glyph-name="z" unicode="z" horiz-adv-x="780" 
d="M23 0l495 776h-461v111h674l-491 -776h505v-111h-722z" />
    <glyph glyph-name="braceleft" unicode="{" 
d="M848 1389h-36.998c-90 0 -150.667 -17.167 -182 -51.5s-47 -105.5 -47 -213.5v-241c0 -116.667 -14.333 -199.334 -43 -248.001s-79.334 -83.667 -152.001 -105c72.667 -21.333 123.334 -56 152.001 -104s43 -130.667 43 -248v-241c0 -108 15.5 -178.833 46.5 -212.5
s91.167 -50.5 180.5 -50.5h39v-88h-43c-126 0 -211.833 24.833 -257.5 74.5s-68.5 149.834 -68.5 300.501v240c0 105.333 -19.333 179.333 -58 222s-105.334 64 -200.001 64c-4.66699 0 -11.834 -0.333008 -21.501 -1s-17.5 -1 -23.5 -1v90
c6.66699 -0.666992 13.5 -1.16699 20.5 -1.5s16.5 -0.5 28.5 -0.5c92.667 0 158.167 21.5 196.5 64.5s57.5 117.167 57.5 222.5v240c0 151.333 22.833 252 68.5 302s131.5 75 257.5 75h43v-88z" />
    <glyph glyph-name="bar" unicode="|" 
d="M557 1565v-2048h-90v2048h90z" />
    <glyph glyph-name="braceright" unicode="}" 
d="M545 1100v-240c0 -105.333 19.333 -179.5 58 -222.5s105.334 -64.5 200.001 -64.5c4.66699 0 11.834 0.333008 21.501 1s17.5 1 23.5 1v-90c-6 0 -13.833 0.333008 -23.5 1s-16.834 1 -21.501 1c-94.667 0 -161.334 -21.333 -200.001 -64s-58 -116.667 -58 -222v-240
c0 -150.667 -22.833 -250.834 -68.5 -300.501s-131.5 -74.5 -257.5 -74.5h-43v88h39c89.333 0 149.5 16.833 180.5 50.5s46.5 104.5 46.5 212.5v241c0 116 14.5 198.333 43.5 247s80.167 83.667 153.5 105c-73.333 21.333 -124.5 56.333 -153.5 105
s-43.5 131.334 -43.5 248.001v241c0 108 -15.667 179.167 -47 213.5s-92 51.5 -182 51.5h-37v88h43c126 0 211.833 -25 257.5 -75s68.5 -150.667 68.5 -302z" />
    <glyph glyph-name="asciitilde" unicode="~" horiz-adv-x="1706" 
d="M1530 647c-70.667 -49.333 -138 -86.168 -202 -110.501s-125.667 -36.5 -185 -36.5c-66 0 -154.667 20.333 -266 61c-10.667 4 -18 6.66699 -22 8c-8 2.66699 -19 6.66699 -33 12c-111.333 40 -197 60 -257 60c-55.333 0 -113.666 -12.5 -174.999 -37.5
s-132 -65.833 -212 -122.5v92c70 49.333 137 86 201 110s126 36 186 36c66.667 0 157 -20.333 271 -61c8 -3.33301 14.333 -5.66602 19 -6.99902l27 -10c112 -40.667 199 -61 261 -61c55.333 0 113.666 12.5 174.999 37.5s132 65.5 212 121.5v-92z" />
    <glyph glyph-name="nonbreakingspace" unicode="&#xa0;" horiz-adv-x="1180" 
 />
    <glyph glyph-name="exclamdown" unicode="&#xa1;" horiz-adv-x="635" 
d="M256 1157h123v-1157h-123v1157zM215 1395c0 28.667 9.83301 52.834 29.5 72.501s43.834 29.5 72.501 29.5s53 -9.83301 73 -29.5s30 -43.834 30 -72.501s-10 -53 -30 -73s-44.333 -30 -73 -30s-52.834 10 -72.501 30s-29.5 44.333 -29.5 73z" />
    <glyph glyph-name="cent" unicode="&#xa2;" horiz-adv-x="1180" 
d="M567 1110c-90.667 -9.33301 -165.5 -48.1689 -224.5 -116.502s-88.5 -150.166 -88.5 -245.499c0 -102.667 27.833 -187.167 83.5 -253.5s132.167 -106.166 229.5 -119.499v735zM930 1028c-41.333 26.667 -85.501 47.167 -132.501 61.5s-96.833 22.5 -149.5 24.5l-1 -745
c65.333 7.33301 121 18.833 167 34.5s84.667 36.167 116 61.5v-131c-38 -23.333 -80.333 -40.833 -127 -52.5s-98.334 -18.167 -155.001 -19.5l-1 -205h-80v207c-131.333 7.33301 -238.166 54.833 -320.499 142.5s-123.5 197.167 -123.5 328.5
c0 133.333 39.833 243.5 119.5 330.5s187.834 138.833 324.501 155.5v161h80v-159c45.333 0 91.5 -5 138.5 -15s95.167 -25 144.5 -45v-135z" />
    <glyph glyph-name="sterling" unicode="&#xa3;" horiz-adv-x="1180" 
d="M100 20c24 45.333 52.1631 82.001 84.4961 110.001s69.166 48 110.499 60c27.333 38 47.5 73.667 60.5 107s19.5 66 19.5 98c0 29.333 -3.66699 60.5 -11 93.5s-18.666 70.167 -33.999 111.5h-230v90h185c-34 70.667 -59.667 137.167 -77 199.5s-26 119.5 -26 171.5
c0 122.667 41.667 223 125 301s191.333 117 324 117c134.667 0 240.834 -37.5 318.501 -112.5s118.834 -180.167 123.501 -315.5l-127 -22c-2 104.667 -30.333 186.334 -85 245.001s-130 88 -226 88c-97.333 0 -174.666 -27.5 -231.999 -82.5s-86 -128.5 -86 -220.5
c0 -44 8.33301 -96.333 25 -157s42 -131.334 76 -212.001h389v-90h-358c13.333 -36.667 23 -69.334 29 -98.001s9 -54.667 9 -78c0 -47.333 -8.5 -90.166 -25.5 -128.499s-42.167 -71.833 -75.5 -100.5c60.667 -1.33301 136 -20.833 226 -58.5s153.667 -56.5 191 -56.5
c40.667 0 78.167 11.5 112.5 34.5s67.166 59.167 98.499 108.5l88 -59c-36.667 -68.667 -78.667 -119.334 -126 -152.001s-102.333 -49 -165 -49c-56 0 -129.333 20.167 -220 60.5s-156 60.5 -196 60.5c-39.333 0 -76.166 -10.333 -110.499 -31s-67.166 -52 -98.499 -94z
" />
    <glyph glyph-name="currency" unicode="&#xa4;" horiz-adv-x="1241" 
d="M954 887c0 91.333 -32.167 169.168 -96.5 233.501s-142.5 96.5 -234.5 96.5s-170.333 -32.333 -235 -97s-97 -142.334 -97 -233.001c0 -92 32.333 -170.333 97 -235s143 -97 235 -97c91.333 0 169.333 32.333 234 97s97 143 97 235zM358 1204
c40 32 81.666 55.6689 124.999 71.002s89.333 23 138 23c48 0 94 -7.83301 138 -23.5s86 -39.167 126 -70.5l205 207l59 -59l-207 -205c30 -38.667 52.833 -80.167 68.5 -124.5s23.5 -90.166 23.5 -137.499c0 -48.667 -7.66699 -94.834 -23 -138.501
s-38.333 -84.834 -69 -123.501l207 -205l-59 -60l-205 207c-38.667 -30 -80.334 -52.833 -125.001 -68.5s-91 -23.5 -139 -23.5c-49.333 0 -95.666 7.66699 -138.999 23s-84.666 38.333 -123.999 69l-206 -207l-58 60l207 205c-30 38 -52.833 79.167 -68.5 123.5
s-23.5 90.5 -23.5 138.5c0 47.333 7.83301 93.166 23.5 137.499s38.5 85.833 68.5 124.5l-207 205l58 59z" />
    <glyph glyph-name="yen" unicode="&#xa5;" horiz-adv-x="1182" 
d="M530 0v631h-497v98h456l-98 162h-358v100h293l-283 461h147l402 -676l412 676h135l-281 -461h289v-100h-352l-99 -162h451v-98h-490v-631h-127z" />
    <glyph glyph-name="brokenbar" unicode="&#xa6;" 
d="M557 408v-758h-90v758h90zM557 1432v-758h-90v758h90z" />
    <glyph glyph-name="section" unicode="&#xa7;" horiz-adv-x="1042" 
d="M526 254c76 0 140.834 26.832 194.501 80.499s80.5 118.834 80.5 195.501c0 81.333 -25.333 147.5 -76 198.5s-117 76.5 -199 76.5c-76.667 0 -141.834 -26.667 -195.501 -80s-80.5 -118.333 -80.5 -195c0 -84 25 -151 75 -201s117 -75 201 -75zM176.001 -92.001
l127.003 -1.00098c2 -77.333 21.833 -135.5 59.5 -174.5s93.5 -58.5 167.5 -58.5c69.333 0 123.666 18.833 162.999 56.5s59 89.834 59 156.501c0 54 -15.167 97.167 -45.5 129.5s-101.166 69.166 -212.499 110.499c-82.667 30 -141.834 53.833 -177.501 71.5
s-63.5 35.5 -83.5 53.5c-40 36 -69.667 76.833 -89 122.5s-29 97.5 -29 155.5c0 82 24 154 72 216s114 106.333 198 133c-74.667 30.667 -129.834 70.334 -165.501 119.001s-53.5 108 -53.5 178c0 98 33.5 176.333 100.5 235s157.167 88 270.5 88c112 0 198 -28.667 258 -86
s90 -140 90 -248v-20h-135c-3.33301 81.333 -23.5 142.666 -60.5 183.999s-90.833 62 -161.5 62c-64.667 0 -117.667 -19.333 -159 -58s-62 -88.334 -62 -149.001c0 -59.333 17.167 -107.333 51.5 -144s103.833 -74 208.5 -112c136.667 -49.333 232 -103.666 286 -162.999
s81 -136 81 -230c0 -90 -22.333 -165.167 -67 -225.5s-110.334 -104.166 -197.001 -131.499c72 -31.333 126.167 -72.5 162.5 -123.5s54.5 -111.5 54.5 -181.5c0 -94.667 -33.167 -173 -99.5 -235s-151.5 -93 -255.5 -93c-109.333 0 -196 30.667 -260 92s-96 144 -96 248v23
z" />
    <glyph glyph-name="dieresis" unicode="&#xa8;" 
d="M590 1188c0 26.667 9.66602 49.667 28.999 69s42.333 29 69 29s49.334 -9.66699 68.001 -29s28 -42.333 28 -69c0 -28 -9 -51 -27 -69s-41 -27 -69 -27s-51.333 9 -70 27s-28 41 -28 69zM239.999 1188c0 26.667 9.33203 49.665 27.999 68.998s41.334 29 68.001 29
s49.667 -9.66699 69 -29s29 -42.333 29 -69c0 -27.333 -9.33301 -50.166 -28 -68.499s-42 -27.5 -70 -27.5s-51 8.83301 -69 26.5s-27 40.834 -27 69.501z" />
    <glyph glyph-name="copyright" unicode="&#xa9;" horiz-adv-x="1706" 
d="M1081 918c-13.333 54 -39.832 96.167 -79.499 126.5s-88.834 45.5 -147.501 45.5c-84 0 -149.333 -32.5 -196 -97.5s-70 -156.167 -70 -273.5c0 -112.667 23.833 -201.667 71.5 -267s112.5 -98 194.5 -98c60.667 0 112.667 17.5 156 52.5s71.333 81.833 84 140.5h102
c-7.33301 -82 -43.333 -149 -108 -201s-144.667 -78 -240 -78c-115.333 0 -207 41.167 -275 123.5s-102 193.5 -102 333.5c0 136.667 35.667 246 107 328s165.333 123 282 123c88 0 162.167 -24 222.5 -72s94.833 -110 103.5 -186h-105zM1511 721
c0 88.667 -16.335 172.84 -49.002 252.507s-79.667 150.5 -141 212.5c-63.333 63.333 -135 111.5 -215 144.5s-164.667 49.5 -254 49.5c-88.667 0 -172.5 -16.333 -251.5 -49s-148.833 -79.667 -209.5 -141c-63.333 -64.667 -111.833 -137.334 -145.5 -218.001
s-50.5 -164.334 -50.5 -251.001s16.667 -169.834 50 -249.501s81.333 -150.834 144 -213.501s133.834 -110.834 213.501 -144.501s162.834 -50.5 249.501 -50.5s170.5 17 251.5 51s153.5 82.667 217.5 146c62 61.333 109.167 131.166 141.5 209.499
s48.5 162.166 48.5 251.499zM851.999 1452.01c99.333 0 193.502 -18.3301 282.502 -54.9971s168.167 -90 237.5 -160c68.667 -68 121 -146.333 157 -235s54 -182.334 54 -281.001c0 -100 -17.833 -193.333 -53.5 -280s-88.167 -164 -157.5 -232
c-71.333 -70.667 -151.833 -124.834 -241.5 -162.501s-182.5 -56.5 -278.5 -56.5c-96.667 0 -189 18.5 -277 55.5s-167 90.833 -237 161.5c-70 69.333 -123.333 148 -160 236s-55 180.667 -55 278c0 96.667 18.667 189.667 56 279s91 169.666 161 240.999
c67.333 68.667 144.666 121 231.999 157s180.666 54 279.999 54z" />
    <glyph glyph-name="ordfeminine" unicode="&#xaa;" horiz-adv-x="831" 
d="M166 1147c0 -80 19.5 -141.668 58.5 -185.001s94.5 -65 166.5 -65c69.333 0 124.166 23.667 164.499 71s60.5 112.333 60.5 195c0 76.667 -20 136.834 -60 180.501s-95 65.5 -165 65.5c-69.333 0 -124.166 -23.5 -164.499 -70.5s-60.5 -110.833 -60.5 -191.5z
M614 843.999l0.000976562 112.001c-22.667 -45.333 -53.834 -79.833 -93.501 -103.5s-86.167 -35.5 -139.5 -35.5c-96 0 -173 30.5 -231 91.5s-87 141.833 -87 242.5c0 99.333 28.833 180.166 86.5 242.499s132.167 93.5 223.5 93.5c56.667 0 105.5 -11.5 146.5 -34.5
s72.5 -56.5 94.5 -100.5v112h93v-620h-93z" />
    <glyph glyph-name="guillemotleft" unicode="&#xab;" horiz-adv-x="782" 
d="M655 49l-254 387l246 395l86 -53l-211 -344l215 -332zM297 49l-252 387l244 395l86 -53l-209 -344l213 -332z" />
    <glyph glyph-name="logicalnot" unicode="&#xac;" horiz-adv-x="1706" 
d="M1452 856v-502h-78v420h-1120v82h1198z" />
    <glyph glyph-name="sfthyphen" unicode="&#xad;" horiz-adv-x="711" 
d="M137 506h436v-129h-436v129z" />
    <glyph glyph-name="registered" unicode="&#xae;" horiz-adv-x="1706" 
d="M852 1077h-168v-313h168c96.667 0 163.167 12 199.5 36s54.5 66 54.5 126c0 52 -20.5 90.167 -61.5 114.5s-105.167 36.5 -192.5 36.5zM874 1155c120 0 208.167 -18.833 264.5 -56.5s84.5 -96.5 84.5 -176.5c0 -59.333 -18.5 -109 -55.5 -149s-86.167 -63.667 -147.5 -71
l190 -393h-131l-182 377h-213v-377h-115v846h305zM1511 721c0 88.667 -16.335 172.84 -49.002 252.507s-79.667 150.5 -141 212.5c-63.333 63.333 -135 111.5 -215 144.5s-164.667 49.5 -254 49.5c-88.667 0 -172.5 -16.333 -251.5 -49s-148.833 -79.667 -209.5 -141
c-63.333 -64.667 -111.833 -137.334 -145.5 -218.001s-50.5 -164.334 -50.5 -251.001s16.667 -169.834 50 -249.501s81.333 -150.834 144 -213.501s133.834 -110.834 213.501 -144.501s162.834 -50.5 249.501 -50.5s170.5 17 251.5 51s153.5 82.667 217.5 146
c62 61.333 109.167 131.166 141.5 209.499s48.5 162.166 48.5 251.499zM851.998 1452.01c99.333 0 193.502 -18.3301 282.502 -54.9971s168.167 -90 237.5 -160c68.667 -68 121 -146.333 157 -235s54 -182.334 54 -281.001c0 -100 -17.833 -193.333 -53.5 -280
s-88.167 -164 -157.5 -232c-71.333 -70.667 -151.833 -124.834 -241.5 -162.501s-182.5 -56.5 -278.5 -56.5c-96.667 0 -189 18.5 -277 55.5s-167 90.833 -237 161.5c-70 69.333 -123.333 148 -160 236s-55 180.667 -55 278c0 96.667 18.667 189.667 56 279
s91 169.666 161 240.999c67.333 68.667 144.666 121 231.999 157s180.666 54 279.999 54z" />
    <glyph glyph-name="macron" unicode="&#xaf;" 
d="M254 1118v117h516v-117h-516z" />
    <glyph glyph-name="degree" unicode="&#xb0;" horiz-adv-x="674" 
d="M551 1176c0 58 -21.0029 107.999 -63.0029 149.999s-92 63 -150 63c-59.333 0 -109.666 -20.667 -150.999 -62s-62 -91.666 -62 -150.999s20.833 -109.666 62.5 -150.999s91.834 -62 150.501 -62s108.834 20.667 150.501 62s62.5 91.666 62.5 150.999zM337.997 1450
c74.667 0 138.668 -26.834 192.001 -80.501s80 -118.167 80 -193.5c0 -76 -26.667 -140.5 -80 -193.5s-118 -79.5 -194 -79.5c-76.667 0 -141.334 26.333 -194.001 79s-79 117.334 -79 194.001c0 76 26.833 140.667 80.5 194s118.5 80 194.5 80z" />
    <glyph glyph-name="plusminus" unicode="&#xb1;" horiz-adv-x="1706" 
d="M1452 141v-82h-1198v82h1198zM893 1161v-354h559v-80h-559v-352h-80v352h-559v80h559v354h80z" />
    <glyph glyph-name="twosuperior" unicode="&#xb2;" horiz-adv-x="778" 
d="M668 645l0.000976562 -70h-621l209 207l60 60c174.667 172.667 262 296 262 370c0 52.667 -19.833 95.667 -59.5 129s-90.834 50 -153.501 50c-66 0 -117.667 -18.5 -155 -55.5s-56 -87.5 -56 -151.5h-86v8c0 83.333 27.167 149.166 81.5 197.499
s128.833 72.5 223.5 72.5c90 0 162.333 -22.167 217 -66.5s82 -103.166 82 -176.499c0 -92.667 -73.667 -211.667 -221 -357l-13 -12l-213 -205h443z" />
    <glyph glyph-name="threesuperior" unicode="&#xb3;" horiz-adv-x="778" 
d="M160 797c4 -57.333 23.666 -100.664 58.999 -129.997s86 -44 152 -44c66.667 0 119.167 16.5 157.5 49.5s57.5 78.5 57.5 136.5c0 58.667 -19.167 104.667 -57.5 138s-91.5 50 -159.5 50c-10.667 0 -18.5 -0.166992 -23.5 -0.5s-9.5 -0.5 -13.5 -0.5v75
c4.66699 0 11.834 -0.333008 21.501 -1s16.834 -1 21.501 -1c61.333 0 109.333 14.167 144 42.5s52 67.5 52 117.5c0 49.333 -17.333 89 -52 119s-80.667 45 -138 45c-51.333 0 -93 -12.5 -125 -37.5s-51 -59.5 -57 -103.5l-95 -1c7.33301 65.333 35.833 116.833 85.5 154.5
s113.5 56.5 191.5 56.5c83.333 0 151 -20.833 203 -62.5s78 -96.5 78 -164.5c0 -49.333 -14.833 -91.833 -44.5 -127.5s-70.834 -60.834 -123.501 -75.501c58.667 -18.667 104 -47.334 136 -86.001s48 -84.334 48 -137.001c0 -78 -27.667 -140.167 -83 -186.5
s-130 -69.5 -224 -69.5c-92.667 0 -165.167 21 -217.5 63s-81.5 102.333 -87.5 181h94z" />
    <glyph glyph-name="acute" unicode="&#xb4;" 
d="M379 1030l213 350h164l-283 -350h-94z" />
    <glyph glyph-name="mu" unicode="&#xb5;" horiz-adv-x="1094" 
d="M326 1063l-122.999 -589.998c-6 -28.667 -10.333 -54.334 -13 -77.001s-4 -44 -4 -64c0 -84 20 -148 60 -192s98 -66 174 -66c84.667 0 157.834 36.333 219.501 109s107.167 177 136.5 313l125 567h121l-166 -786c-1.33301 -6 -3 -14 -5 -24
c-13.333 -61.333 -20 -98.666 -20 -111.999c0 -20.667 5.83301 -36.334 17.5 -47.001s28.5 -16 50.5 -16c6 0 12.167 0.166992 18.5 0.5s13.166 0.833008 20.499 1.5l-18 -96c-2 -0.666992 -4.66699 -1.33398 -8 -2.00098c-32.667 -7.33301 -55.334 -11 -68.001 -11
c-45.333 0 -78.833 10.5 -100.5 31.5s-32.5 52.833 -32.5 95.5c0 4.66699 0.166992 10 0.5 16s1.5 15.667 3.5 29c-28.667 -55.333 -69.834 -97.833 -123.501 -127.5s-116.5 -44.5 -188.5 -44.5c-64.667 0 -121.167 15.167 -169.5 45.5s-83.166 72.5 -104.499 126.5
l-119 -567h-121l316 1487h121z" />
    <glyph glyph-name="paragraph" unicode="&#xb6;" 
d="M932 1415h-128.999v-1415h-70v1415h-192v-1415h-70v782c-116.667 5.33301 -209.334 39.5 -278.001 102.5s-103 144.833 -103 245.5c0 104.667 36.167 189 108.5 253s167.833 96 286.5 96h447v-64z" />
    <glyph glyph-name="periodcentered" unicode="&#xb7;" horiz-adv-x="590" 
d="M193 719c0 28.667 9.83301 52.834 29.5 72.501s43.834 29.5 72.501 29.5s52.834 -9.83301 72.501 -29.5s29.5 -43.834 29.5 -72.501s-9.83301 -53 -29.5 -73s-43.834 -30 -72.501 -30s-52.834 10 -72.501 30s-29.5 44.333 -29.5 73z" />
    <glyph glyph-name="cedilla" unicode="&#xb8;" 
d="M301 -379l-0.00292969 69.998c65.333 -13.333 113.666 -22.166 144.999 -26.499s58 -6.5 80 -6.5c42 0 73.333 7.33301 94 22s31 36.667 31 66c0 30.667 -11.667 53.334 -35 68.001s-58.666 22 -105.999 22c-4 0 -10.667 -0.333008 -20 -1s-16.333 -1 -21 -1v166h61v-100
h15c68.667 0 121.334 -13.167 158.001 -39.5s55 -63.833 55 -112.5c0 -54.667 -18 -95.667 -54 -123s-89.667 -41 -161 -41c-33.333 0 -69.666 3 -108.999 9s-83.666 15.333 -132.999 28z" />
    <glyph glyph-name="onesuperior" unicode="&#xb9;" horiz-adv-x="778" 
d="M360 575v799h-174l41 72h217v-871h-84z" />
    <glyph glyph-name="ordmasculine" unicode="&#xba;" horiz-adv-x="858" 
d="M428 897c73.333 0 135.333 24.667 186 74s76 110 76 182c0 71.333 -25.167 131.5 -75.5 180.5s-112.5 73.5 -186.5 73.5c-73.333 0 -135 -24.5 -185 -73.5s-75 -109.167 -75 -180.5s25.167 -131.833 75.5 -181.5s111.833 -74.5 184.5 -74.5zM426 817
c-48 0 -93.668 8.49902 -137.001 25.499s-83 42.167 -119 75.5c-34 31.333 -59.5 66.833 -76.5 106.5s-25.5 82.5 -25.5 128.5c0 45.333 8.83301 88.333 26.5 129s43.5 77 77.5 109c33.333 30.667 71.833 54.334 115.5 71.001s89.834 25 138.501 25
c50 0 96.833 -8.16699 140.5 -24.5s82.834 -40.166 117.501 -71.499c34.667 -32.667 61.167 -69.334 79.5 -110.001s27.5 -83.334 27.5 -128.001s-9 -87.167 -27 -127.5s-44 -76.166 -78 -107.499c-35.333 -32.667 -75.333 -57.667 -120 -75s-91.334 -26 -140.001 -26z" />
    <glyph glyph-name="guillemotright" unicode="&#xbb;" horiz-adv-x="782" 
d="M127 49l-82 53l215 332l-211 344l86 53l244 -395zM485 49l-84 53l215 332l-208 344l86 53l243 -395z" />
    <glyph glyph-name="onequarter" unicode="&#xbc;" horiz-adv-x="1829" 
d="M1540 272v369l-291 -369h291zM1540 0v207h-416l500 633v-568h94v-65h-94v-207h-84zM401 -39l918 1518h106l-915 -1518h-109zM344 633v745h-168l41 66h207v-811h-80z" />
    <glyph glyph-name="onehalf" unicode="&#xbd;" horiz-adv-x="1829" 
d="M1722 63l-0.000976562 -63h-592l199 195l53 50c169.333 162.667 254 279.667 254 351c0 48.667 -19 88.5 -57 119.5s-87 46.5 -147 46.5c-62 0 -110.667 -17.333 -146 -52s-53 -82.334 -53 -143.001h-82v8c0 78.667 25.833 140.334 77.5 185.001s122.834 67 213.501 67
c86.667 0 155.667 -20.5 207 -61.5s77 -96.167 77 -165.5c0 -87.333 -72.667 -200.333 -218 -339l-5 -5l-203 -193h422zM400.999 -39l918 1518h106l-915 -1518h-109zM343.999 633v745h-168l41 66h207v-811h-80z" />
    <glyph glyph-name="threequarters" unicode="&#xbe;" horiz-adv-x="1829" 
d="M1540 272v369l-291 -369h291zM1540 0v207h-416l500 633v-568h94v-65h-94v-207h-84zM401 -39l918 1518h106l-915 -1518h-109zM152 840c4 -53.333 23.168 -93.666 57.501 -120.999s82.5 -41 144.5 -41c64 0 114.167 15.333 150.5 46s54.5 72.667 54.5 126
c0 56 -18.333 99.333 -55 130s-88 46 -154 46h-35v70c5.33301 0 12.666 -0.333008 21.999 -1s16.333 -1 21 -1c58.667 0 104.5 13 137.5 39s49.5 62 49.5 108c0 46.667 -16.333 84 -49 112s-76.334 42 -131.001 42c-50 0 -90.333 -11.5 -121 -34.5
s-48.667 -55.167 -54 -96.5h-89c5.33301 60 31.666 107.667 78.999 143s109 53 185 53c79.333 0 143.5 -19.5 192.5 -58.5s73.5 -89.833 73.5 -152.5c0 -47.333 -14 -87.5 -42 -120.5s-67.333 -56.167 -118 -69.5c56 -16.667 99.333 -43.167 130 -79.5s46 -79.5 46 -129.5
c0 -72.667 -26.5 -130.834 -79.5 -174.501s-124.167 -65.5 -213.5 -65.5c-87.333 0 -156.166 19.667 -206.499 59s-79.166 96.333 -86.499 171h91z" />
    <glyph glyph-name="questiondown" unicode="&#xbf;" horiz-adv-x="1053" 
d="M639 1395c0 -28.667 -9.83301 -53 -29.5 -73s-43.834 -30 -72.501 -30s-52.667 9.83301 -72 29.5s-29 44.167 -29 73.5c0 28.667 9.66699 52.834 29 72.501s43.333 29.5 72 29.5s52.834 -9.83301 72.501 -29.5s29.5 -43.834 29.5 -72.501zM750 365l117.999 0.000976562
v-33c0 -114.667 -32.5 -205.167 -97.5 -271.5s-153.167 -99.5 -264.5 -99.5c-101.333 0 -182.333 30.333 -243 91s-91 141.667 -91 243c0 74 16 136 48 186s97.333 106.667 196 170l74 47c132 81.333 198 158 198 230c0 48 -15.5 86.5 -46.5 115.5s-72.167 43.5 -123.5 43.5
c-59.333 0 -105.166 -15.5 -137.499 -46.5s-48.5 -74.833 -48.5 -131.5v-18h-111v24c0 90 26.833 159 80.5 207s130.5 72 230.5 72c83.333 0 151 -25 203 -75s78 -114.333 78 -193c0 -58.667 -15.333 -110.167 -46 -154.5s-87.667 -93.833 -171 -148.5l-72 -47
c-151.333 -95.333 -227 -186.333 -227 -273c0 -64.667 19.5 -116.334 58.5 -155.001s91.167 -58 156.5 -58c76 0 134.667 23.333 176 70s62 112.667 62 198v7z" />
    <glyph glyph-name="Agrave" unicode="&#xc0;" horiz-adv-x="1223" 
d="M356 610h510l-250 637zM-18 0l643 1522l616 -1522h-145l-187 496h-598l-194 -496h-135zM745 1608h-94l-283 350h164z" />
    <glyph glyph-name="Aacute" unicode="&#xc1;" horiz-adv-x="1223" 
d="M356 610h510l-250 637zM-18 0l643 1522l616 -1522h-145l-187 496h-598l-194 -496h-135zM479 1608l213 350h164l-283 -350h-94z" />
    <glyph glyph-name="Acircumflex" unicode="&#xc2;" horiz-adv-x="1223" 
d="M356 610h510l-250 637zM-18 0l643 1522l616 -1522h-145l-187 496h-598l-194 -496h-135zM325 1608l213 350h146l213 -350h-92l-193 250l-195 -250h-92z" />
    <glyph glyph-name="Atilde" unicode="&#xc3;" horiz-adv-x="1223" 
d="M356 610h510l-250 637zM-18 0l643 1522l616 -1522h-145l-187 496h-598l-194 -496h-135zM903 1872c-16.667 -60 -41.833 -105.667 -75.5 -137s-74.834 -47 -123.501 -47c-10.667 0 -21.334 0.833008 -32.001 2.5s-21.667 4.16699 -33 7.5l-80 27
c-8 2.66699 -16.833 4.66699 -26.5 6s-20.167 2 -31.5 2c-20.667 0 -38.5 -5 -53.5 -15s-27.833 -25.333 -38.5 -46h-88c14.667 58 38.834 102.167 72.501 132.5s75.834 45.5 126.501 45.5c11.333 0 22 -0.666992 32 -2s19 -3.33301 27 -6l78 -27
c11.333 -3.33301 22 -5.83301 32 -7.5s19.667 -2.5 29 -2.5c24 0 44.167 5.66699 60.5 17s28.5 28 36.5 50h88z" />
    <glyph glyph-name="Adieresis" unicode="&#xc4;" horiz-adv-x="1223" 
d="M356 610h510l-250 637zM-18 0l643 1522l616 -1522h-145l-187 496h-598l-194 -496h-135zM690 1766c0 26.667 9.66602 49.667 28.999 69s42.333 29 69 29s49.334 -9.66699 68.001 -29s28 -42.333 28 -69c0 -28 -9 -51 -27 -69s-41 -27 -69 -27s-51.333 9 -70 27
s-28 41 -28 69zM339.999 1766c0 26.667 9.33203 49.665 27.999 68.998s41.334 29 68.001 29s49.667 -9.66699 69 -29s29 -42.333 29 -69c0 -27.333 -9.33301 -50.166 -28 -68.499s-42 -27.5 -70 -27.5s-51 8.83301 -69 26.5s-27 40.834 -27 69.501z" />
    <glyph glyph-name="Aring" unicode="&#xc5;" horiz-adv-x="1223" 
d="M492 1737c0 -37.333 12.833 -68.833 38.5 -94.5s57.167 -38.5 94.5 -38.5c36.667 0 68 12.833 94 38.5s39 57.167 39 94.5s-12.833 68.833 -38.5 94.5s-57.167 38.5 -94.5 38.5s-68.833 -12.833 -94.5 -38.5s-38.5 -57.167 -38.5 -94.5zM389 1737
c0 66.667 22.667 122.5 68 167.5s101.333 67.5 168 67.5c66 0 121.667 -22.5 167 -67.5s68 -100.833 68 -167.5c0 -66 -22.667 -121.833 -68 -167.5s-101 -68.5 -167 -68.5s-121.833 22.833 -167.5 68.5s-68.5 101.5 -68.5 167.5zM356 610h510l-250 633zM-18 0l624 1460h39
l596 -1460h-145l-187 496h-598l-194 -496h-135z" />
    <glyph glyph-name="AE" unicode="&#xc6;" horiz-adv-x="1688" 
d="M348 610h457l-217 662zM135 0h-127l529 1464h618l41 -125h-506l158 -458h526l43 -125h-526l215 -631h532l41 -125h-665l-170 496h-533z" />
    <glyph glyph-name="Ccedilla" unicode="&#xc7;" horiz-adv-x="1464" 
d="M1358 1196c-72.667 62.667 -147.004 109.001 -223.004 139.001s-156 45 -240 45c-189.333 0 -343.166 -60 -461.499 -180s-177.5 -276.333 -177.5 -469c0 -96.667 14.5 -183.667 43.5 -261s73.167 -146 132.5 -206c58.667 -58.667 125.834 -103.334 201.501 -134.001
s156.834 -46 243.501 -46c84 0 166 14.333 246 43s155.667 71 227 127v-156c-72 -44 -148.167 -77.833 -228.5 -101.5s-159.833 -35.5 -238.5 -35.5c-106 0 -207.333 19 -304 57s-179.667 91.333 -249 160c-71.333 70.667 -125.333 152.667 -162 246
s-55 195.666 -55 306.999c0 109.333 18.833 211.333 56.5 306s91.834 176.334 162.501 245.001c68.667 67.333 151.5 120 248.5 158s197.833 57 302.5 57c93.333 0 179.833 -12.833 259.5 -38.5s152.167 -64.167 217.5 -115.5zM648.996 -378.999l-0.00292969 69.998
c65.333 -13.333 113.666 -22.166 144.999 -26.499s58 -6.5 80 -6.5c42 0 73.333 7.33301 94 22s31 36.667 31 66c0 30.667 -11.667 53.334 -35 68.001s-58.666 22 -105.999 22c-4 0 -10.667 -0.333008 -20 -1s-16.333 -1 -21 -1v166h61v-100h15
c68.667 0 121.334 -13.167 158.001 -39.5s55 -63.833 55 -112.5c0 -54.667 -18 -95.667 -54 -123s-89.667 -41 -161 -41c-33.333 0 -69.666 3 -108.999 9s-83.666 15.333 -132.999 28z" />
    <glyph glyph-name="Egrave" unicode="&#xc8;" horiz-adv-x="1051" 
d="M182 0v1464h725v-125h-592v-458h592v-125h-592v-631h592v-125h-725zM674 1608h-94l-283 350h164z" />
    <glyph glyph-name="Eacute" unicode="&#xc9;" horiz-adv-x="1051" 
d="M182 0v1464h725v-125h-592v-458h592v-125h-592v-631h592v-125h-725zM408 1608l213 350h164l-283 -350h-94z" />
    <glyph glyph-name="Ecircumflex" unicode="&#xca;" horiz-adv-x="1051" 
d="M182 0v1464h725v-125h-592v-458h592v-125h-592v-631h592v-125h-725zM254 1608l213 350h146l213 -350h-92l-193 250l-195 -250h-92z" />
    <glyph glyph-name="Edieresis" unicode="&#xcb;" horiz-adv-x="1051" 
d="M182 0v1464h725v-125h-592v-458h592v-125h-592v-631h592v-125h-725zM619 1766c0 26.667 9.66602 49.667 28.999 69s42.333 29 69 29s49.334 -9.66699 68.001 -29s28 -42.333 28 -69c0 -28 -9 -51 -27 -69s-41 -27 -69 -27s-51.333 9 -70 27s-28 41 -28 69zM268.999 1766
c0 26.667 9.33203 49.665 27.999 68.998s41.334 29 68.001 29s49.667 -9.66699 69 -29s29 -42.333 29 -69c0 -27.333 -9.33301 -50.166 -28 -68.499s-42 -27.5 -70 -27.5s-51 8.83301 -69 26.5s-27 40.834 -27 69.501z" />
    <glyph glyph-name="Igrave" unicode="&#xcc;" horiz-adv-x="498" 
d="M182 0v1464h133v-1464h-133zM383 1608h-94l-283 350h164z" />
    <glyph glyph-name="Iacute" unicode="&#xcd;" horiz-adv-x="498" 
d="M182 0v1464h133v-1464h-133zM117 1608l213 350h164l-283 -350h-94z" />
    <glyph glyph-name="Icircumflex" unicode="&#xce;" horiz-adv-x="498" 
d="M182 0v1464h133v-1464h-133zM-37 1608l213 350h146l213 -350h-92l-193 250l-195 -250h-92z" />
    <glyph glyph-name="Idieresis" unicode="&#xcf;" horiz-adv-x="498" 
d="M182 0v1464h133v-1464h-133zM328 1766c0 26.667 9.66602 49.667 28.999 69s42.333 29 69 29s49.334 -9.66699 68.001 -29s28 -42.333 28 -69c0 -28 -9 -51 -27 -69s-41 -27 -69 -27s-51.333 9 -70 27s-28 41 -28 69zM-22.001 1766c0 26.667 9.33203 49.665 27.999 68.998
s41.334 29 68.001 29s49.667 -9.66699 69 -29s29 -42.333 29 -69c0 -27.333 -9.33301 -50.166 -28 -68.499s-42 -27.5 -70 -27.5s-51 8.83301 -69 26.5s-27 40.834 -27 69.501z" />
    <glyph glyph-name="Eth" unicode="&#xd0;" horiz-adv-x="1436" 
d="M326 115l184.002 -0.000976562c152 0 259.833 8.5 323.5 25.5s117.5 45.833 161.5 86.5c61.333 57.333 107.5 128.333 138.5 213s46.5 182.334 46.5 293.001c0 112.667 -15.833 211.667 -47.5 297s-78.167 155 -139.5 209c-46.667 42 -103.834 71.667 -171.501 89
s-185.834 26 -354.501 26h-25h-116v-490h426v-102h-426v-647zM193.002 -0.000976562l0.000976562 762h-193v102h193v600h227c205.333 0 350.5 -10 435.5 -30s157.5 -54.333 217.5 -103c82 -66 144.167 -150 186.5 -252s63.5 -218 63.5 -348s-21.333 -245.667 -64 -347
s-105.334 -185 -188.001 -251c-61.333 -48 -132.833 -82.167 -214.5 -102.5s-219.167 -30.5 -412.5 -30.5h-24h-227z" />
    <glyph glyph-name="Ntilde" unicode="&#xd1;" horiz-adv-x="1526" 
d="M182 0v1526l1037 -1225v1163h124v-1507l-1036 1227v-1184h-125zM1055 1872c-16.667 -60 -41.833 -105.667 -75.5 -137s-74.834 -47 -123.501 -47c-10.667 0 -21.334 0.833008 -32.001 2.5s-21.667 4.16699 -33 7.5l-80 27c-8 2.66699 -16.833 4.66699 -26.5 6
s-20.167 2 -31.5 2c-20.667 0 -38.5 -5 -53.5 -15s-27.833 -25.333 -38.5 -46h-88c14.667 58 38.834 102.167 72.501 132.5s75.834 45.5 126.501 45.5c11.333 0 22 -0.666992 32 -2s19 -3.33301 27 -6l78 -27c11.333 -3.33301 22 -5.83301 32 -7.5s19.667 -2.5 29 -2.5
c24 0 44.167 5.66699 60.5 17s28.5 28 36.5 50h88z" />
    <glyph glyph-name="Ograve" unicode="&#xd2;" horiz-adv-x="1792" 
d="M895 80c86.667 0 168.669 16.001 246.002 48.001s147 78.667 209 140c60.667 62 107.167 132.5 139.5 211.5s48.5 162.167 48.5 249.5c0 88 -16 171.167 -48 249.5s-78.667 148.833 -140 211.5c-60.667 61.333 -129.834 108 -207.501 140s-160.167 48 -247.5 48
c-86.667 0 -168.334 -16 -245.001 -48s-146 -78.667 -208 -140c-61.333 -63.333 -108 -133.833 -140 -211.5s-48 -160.834 -48 -249.501c0 -88 16 -171.167 48 -249.5s78.667 -148.833 140 -211.5c61.333 -62 130 -108.833 206 -140.5s158.333 -47.5 247 -47.5z
M1679 729.001c0 -103.333 -19.667 -201.499 -59 -294.499s-96 -175.833 -170 -248.5c-75.333 -73.333 -160.333 -129.166 -255 -167.499s-194.667 -57.5 -300 -57.5s-205.166 19.167 -299.499 57.5s-178.833 94.166 -253.5 167.499c-74.667 74 -131.5 157.167 -170.5 249.5
s-58.5 190.166 -58.5 293.499c0 104.667 19.5 203.5 58.5 296.5s95.833 176.5 170.5 250.5c73.333 72.667 157 127.667 251 165s194.667 56 302 56c108 0 209.167 -18.833 303.5 -56.5s178.166 -92.5 251.499 -164.5c74.667 -74 131.5 -157.5 170.5 -250.5
s58.5 -191.833 58.5 -296.5zM1030 1608h-94l-283 350h164z" />
    <glyph glyph-name="Oacute" unicode="&#xd3;" horiz-adv-x="1792" 
d="M895 80c86.667 0 168.669 16.001 246.002 48.001s147 78.667 209 140c60.667 62 107.167 132.5 139.5 211.5s48.5 162.167 48.5 249.5c0 88 -16 171.167 -48 249.5s-78.667 148.833 -140 211.5c-60.667 61.333 -129.834 108 -207.501 140s-160.167 48 -247.5 48
c-86.667 0 -168.334 -16 -245.001 -48s-146 -78.667 -208 -140c-61.333 -63.333 -108 -133.833 -140 -211.5s-48 -160.834 -48 -249.501c0 -88 16 -171.167 48 -249.5s78.667 -148.833 140 -211.5c61.333 -62 130 -108.833 206 -140.5s158.333 -47.5 247 -47.5z
M1679 729.001c0 -103.333 -19.667 -201.499 -59 -294.499s-96 -175.833 -170 -248.5c-75.333 -73.333 -160.333 -129.166 -255 -167.499s-194.667 -57.5 -300 -57.5s-205.166 19.167 -299.499 57.5s-178.833 94.166 -253.5 167.499c-74.667 74 -131.5 157.167 -170.5 249.5
s-58.5 190.166 -58.5 293.499c0 104.667 19.5 203.5 58.5 296.5s95.833 176.5 170.5 250.5c73.333 72.667 157 127.667 251 165s194.667 56 302 56c108 0 209.167 -18.833 303.5 -56.5s178.166 -92.5 251.499 -164.5c74.667 -74 131.5 -157.5 170.5 -250.5
s58.5 -191.833 58.5 -296.5zM764.002 1608l213 350h164l-283 -350h-94z" />
    <glyph glyph-name="Ocircumflex" unicode="&#xd4;" horiz-adv-x="1792" 
d="M895 80c86.667 0 168.669 16.001 246.002 48.001s147 78.667 209 140c60.667 62 107.167 132.5 139.5 211.5s48.5 162.167 48.5 249.5c0 88 -16 171.167 -48 249.5s-78.667 148.833 -140 211.5c-60.667 61.333 -129.834 108 -207.501 140s-160.167 48 -247.5 48
c-86.667 0 -168.334 -16 -245.001 -48s-146 -78.667 -208 -140c-61.333 -63.333 -108 -133.833 -140 -211.5s-48 -160.834 -48 -249.501c0 -88 16 -171.167 48 -249.5s78.667 -148.833 140 -211.5c61.333 -62 130 -108.833 206 -140.5s158.333 -47.5 247 -47.5z
M1679 729.001c0 -103.333 -19.667 -201.499 -59 -294.499s-96 -175.833 -170 -248.5c-75.333 -73.333 -160.333 -129.166 -255 -167.499s-194.667 -57.5 -300 -57.5s-205.166 19.167 -299.499 57.5s-178.833 94.166 -253.5 167.499c-74.667 74 -131.5 157.167 -170.5 249.5
s-58.5 190.166 -58.5 293.499c0 104.667 19.5 203.5 58.5 296.5s95.833 176.5 170.5 250.5c73.333 72.667 157 127.667 251 165s194.667 56 302 56c108 0 209.167 -18.833 303.5 -56.5s178.166 -92.5 251.499 -164.5c74.667 -74 131.5 -157.5 170.5 -250.5
s58.5 -191.833 58.5 -296.5zM610.002 1608l213 350h146l213 -350h-92l-193 250l-195 -250h-92z" />
    <glyph glyph-name="Otilde" unicode="&#xd5;" horiz-adv-x="1792" 
d="M895 80c86.667 0 168.669 16.001 246.002 48.001s147 78.667 209 140c60.667 62 107.167 132.5 139.5 211.5s48.5 162.167 48.5 249.5c0 88 -16 171.167 -48 249.5s-78.667 148.833 -140 211.5c-60.667 61.333 -129.834 108 -207.501 140s-160.167 48 -247.5 48
c-86.667 0 -168.334 -16 -245.001 -48s-146 -78.667 -208 -140c-61.333 -63.333 -108 -133.833 -140 -211.5s-48 -160.834 -48 -249.501c0 -88 16 -171.167 48 -249.5s78.667 -148.833 140 -211.5c61.333 -62 130 -108.833 206 -140.5s158.333 -47.5 247 -47.5z
M1679 729.001c0 -103.333 -19.667 -201.499 -59 -294.499s-96 -175.833 -170 -248.5c-75.333 -73.333 -160.333 -129.166 -255 -167.499s-194.667 -57.5 -300 -57.5s-205.166 19.167 -299.499 57.5s-178.833 94.166 -253.5 167.499c-74.667 74 -131.5 157.167 -170.5 249.5
s-58.5 190.166 -58.5 293.499c0 104.667 19.5 203.5 58.5 296.5s95.833 176.5 170.5 250.5c73.333 72.667 157 127.667 251 165s194.667 56 302 56c108 0 209.167 -18.833 303.5 -56.5s178.166 -92.5 251.499 -164.5c74.667 -74 131.5 -157.5 170.5 -250.5
s58.5 -191.833 58.5 -296.5zM1188 1872c-16.667 -60 -41.833 -105.667 -75.5 -137s-74.834 -47 -123.501 -47c-10.667 0 -21.334 0.833008 -32.001 2.5s-21.667 4.16699 -33 7.5l-80 27c-8 2.66699 -16.833 4.66699 -26.5 6s-20.167 2 -31.5 2c-20.667 0 -38.5 -5 -53.5 -15
s-27.833 -25.333 -38.5 -46h-88c14.667 58 38.834 102.167 72.501 132.5s75.834 45.5 126.501 45.5c11.333 0 22 -0.666992 32 -2s19 -3.33301 27 -6l78 -27c11.333 -3.33301 22 -5.83301 32 -7.5s19.667 -2.5 29 -2.5c24 0 44.167 5.66699 60.5 17s28.5 28 36.5 50h88z" />
    <glyph glyph-name="Odieresis" unicode="&#xd6;" horiz-adv-x="1792" 
d="M895 80c86.667 0 168.669 16.001 246.002 48.001s147 78.667 209 140c60.667 62 107.167 132.5 139.5 211.5s48.5 162.167 48.5 249.5c0 88 -16 171.167 -48 249.5s-78.667 148.833 -140 211.5c-60.667 61.333 -129.834 108 -207.501 140s-160.167 48 -247.5 48
c-86.667 0 -168.334 -16 -245.001 -48s-146 -78.667 -208 -140c-61.333 -63.333 -108 -133.833 -140 -211.5s-48 -160.834 -48 -249.501c0 -88 16 -171.167 48 -249.5s78.667 -148.833 140 -211.5c61.333 -62 130 -108.833 206 -140.5s158.333 -47.5 247 -47.5z
M1679 729.001c0 -103.333 -19.667 -201.499 -59 -294.499s-96 -175.833 -170 -248.5c-75.333 -73.333 -160.333 -129.166 -255 -167.499s-194.667 -57.5 -300 -57.5s-205.166 19.167 -299.499 57.5s-178.833 94.166 -253.5 167.499c-74.667 74 -131.5 157.167 -170.5 249.5
s-58.5 190.166 -58.5 293.499c0 104.667 19.5 203.5 58.5 296.5s95.833 176.5 170.5 250.5c73.333 72.667 157 127.667 251 165s194.667 56 302 56c108 0 209.167 -18.833 303.5 -56.5s178.166 -92.5 251.499 -164.5c74.667 -74 131.5 -157.5 170.5 -250.5
s58.5 -191.833 58.5 -296.5zM975.002 1766c0 26.667 9.66602 49.667 28.999 69s42.333 29 69 29s49.334 -9.66699 68.001 -29s28 -42.333 28 -69c0 -28 -9 -51 -27 -69s-41 -27 -69 -27s-51.333 9 -70 27s-28 41 -28 69zM625.001 1766
c0 26.667 9.33203 49.665 27.999 68.998s41.334 29 68.001 29s49.667 -9.66699 69 -29s29 -42.333 29 -69c0 -27.333 -9.33301 -50.166 -28 -68.499s-42 -27.5 -70 -27.5s-51 8.83301 -69 26.5s-27 40.834 -27 69.501z" />
    <glyph glyph-name="multiply" unicode="&#xd7;" horiz-adv-x="1706" 
d="M854 668l487 487l58 -57l-488 -488l488 -487l-58 -57l-487 487l-487 -487l-58 57l488 487l-488 488l58 57z" />
    <glyph glyph-name="Oslash" unicode="&#xd8;" horiz-adv-x="1792" 
d="M489 233c64.667 -50.667 130.168 -88.167 196.501 -112.5s136.166 -36.5 209.499 -36.5c85.333 0 167.5 16.5 246.5 49.5s148.5 79.833 208.5 140.5c61.333 61.333 108 131 140 209s48 160.667 48 248c0 78 -12.5 151.5 -37.5 220.5s-63.833 136.167 -116.5 201.5z
M1319 1221c-60.667 52.667 -126.33 92.333 -196.997 119s-146.334 40 -227.001 40c-86.667 0 -168.834 -16.167 -246.501 -48.5s-146.5 -78.833 -206.5 -139.5c-60.667 -62 -106.834 -132.167 -138.501 -210.5s-47.5 -161.833 -47.5 -250.5c0 -82 13.333 -158 40 -228
s68.667 -138.667 126 -206zM219.005 -45.001l-65.002 69.9971l176 180c-70.667 68 -124.5 147 -161.5 237s-55.5 186.333 -55.5 289c0 104 19.5 202.333 58.5 295s95.833 175.334 170.5 248.001c74 72.667 158.333 128.334 253 167.001s194.667 58 300 58
c101.333 0 195.166 -15.667 281.499 -47s163.833 -77.666 232.5 -138.999l184 192l70 -67l-186 -191c64.667 -70 114.5 -149.667 149.5 -239s52.5 -181.666 52.5 -276.999c0 -104 -19.5 -202.333 -58.5 -295s-95.833 -175.334 -170.5 -248.001s-159.667 -127.667 -255 -165
s-198.666 -56 -309.999 -56c-93.333 0 -179.666 14 -258.999 42s-155.666 71.333 -228.999 130z" />
    <glyph glyph-name="Ugrave" unicode="&#xd9;" horiz-adv-x="1417" 
d="M176 1464h131v-956c0 -144.667 33 -252.167 99 -322.5s167 -105.5 303 -105.5c134 0 234 35.167 300 105.5s99 177.833 99 322.5v956h133v-913c0 -198 -44 -345.833 -132 -443.5s-221.333 -146.5 -400 -146.5c-179.333 0 -313 48.833 -401 146.5s-132 245.5 -132 443.5
v913zM842 1608h-94l-283 350h164z" />
    <glyph glyph-name="Uacute" unicode="&#xda;" horiz-adv-x="1417" 
d="M176 1464h131v-956c0 -144.667 33 -252.167 99 -322.5s167 -105.5 303 -105.5c134 0 234 35.167 300 105.5s99 177.833 99 322.5v956h133v-913c0 -198 -44 -345.833 -132 -443.5s-221.333 -146.5 -400 -146.5c-179.333 0 -313 48.833 -401 146.5s-132 245.5 -132 443.5
v913zM576 1608l213 350h164l-283 -350h-94z" />
    <glyph glyph-name="Ucircumflex" unicode="&#xdb;" horiz-adv-x="1417" 
d="M176 1464h131v-956c0 -144.667 33 -252.167 99 -322.5s167 -105.5 303 -105.5c134 0 234 35.167 300 105.5s99 177.833 99 322.5v956h133v-913c0 -198 -44 -345.833 -132 -443.5s-221.333 -146.5 -400 -146.5c-179.333 0 -313 48.833 -401 146.5s-132 245.5 -132 443.5
v913zM422 1608l213 350h146l213 -350h-92l-193 250l-195 -250h-92z" />
    <glyph glyph-name="Udieresis" unicode="&#xdc;" horiz-adv-x="1417" 
d="M176 1464h131v-956c0 -144.667 33 -252.167 99 -322.5s167 -105.5 303 -105.5c134 0 234 35.167 300 105.5s99 177.833 99 322.5v956h133v-913c0 -198 -44 -345.833 -132 -443.5s-221.333 -146.5 -400 -146.5c-179.333 0 -313 48.833 -401 146.5s-132 245.5 -132 443.5
v913zM787 1766c0 26.667 9.66602 49.667 28.999 69s42.333 29 69 29s49.334 -9.66699 68.001 -29s28 -42.333 28 -69c0 -28 -9 -51 -27 -69s-41 -27 -69 -27s-51.333 9 -70 27s-28 41 -28 69zM436.999 1766c0 26.667 9.33203 49.665 27.999 68.998s41.334 29 68.001 29
s49.667 -9.66699 69 -29s29 -42.333 29 -69c0 -27.333 -9.33301 -50.166 -28 -68.499s-42 -27.5 -70 -27.5s-51 8.83301 -69 26.5s-27 40.834 -27 69.501z" />
    <glyph glyph-name="Yacute" unicode="&#xdd;" horiz-adv-x="1118" 
d="M496 0v674l-486 790h160l393 -671l395 671h152l-481 -790v-674h-133zM426 1608l213 350h164l-283 -350h-94z" />
    <glyph glyph-name="Thorn" unicode="&#xde;" 
d="M315 473l90.999 -0.000976562c161.333 0 269.833 20.5 325.5 61.5s83.5 112.833 83.5 215.5c0 44 -6.33301 84.5 -19 121.5s-31.667 69.5 -57 97.5c-26 28.667 -60.667 48.834 -104 60.501s-119.666 17.5 -228.999 17.5h-91v-574zM181.999 -0.000976562v1464h133v-299
h111c117.333 0 201.333 -5.66699 252 -17s95 -30.666 133 -57.999c46 -34 81.667 -79.667 107 -137s38 -121 38 -191c0 -140 -39.167 -242.667 -117.5 -308s-201.5 -98 -369.5 -98h-154v-356h-133z" />
    <glyph glyph-name="germandbls" unicode="&#xdf;" horiz-adv-x="1059" 
d="M154 0l-0.00195312 781.996h-121v105h121v297c0 124 30.833 219.5 92.5 286.5s149.5 100.5 263.5 100.5c110.667 0 198 -34.833 262 -104.5s96 -164.5 96 -284.5c0 -77.333 -18.167 -142.666 -54.5 -195.999s-90.5 -94 -162.5 -122
c100.667 -11.333 177.5 -53.833 230.5 -127.5s79.5 -175.167 79.5 -304.5c0 -145.333 -38.5 -261.166 -115.5 -347.499s-180.5 -129.5 -310.5 -129.5c-19.333 0 -39 2 -59 6s-41.333 10.333 -64 19v131c20.667 -10.667 41.834 -18.5 63.501 -23.5s44.167 -7.5 67.5 -7.5
c92 0 163 30.833 213 92.5s75 148.834 75 261.501c0 119.333 -27.667 210.333 -83 273s-136 94 -242 94c-8 0 -17 -0.333008 -27 -1l-45 -3v124c5.33301 0 11.5 -0.166992 18.5 -0.5s17.167 -0.5 30.5 -0.5c88 0 153 22.167 195 66.5s63 112.166 63 203.499
c0 87.333 -20.5 153.833 -61.5 199.5s-100.833 68.5 -179.5 68.5c-46 0 -86.167 -10.5 -120.5 -31.5s-59.833 -50.833 -76.5 -89.5c-9.33301 -21.333 -16.166 -47.666 -20.499 -78.999s-6.5 -80.666 -6.5 -147.999v-84v-1026h-122z" />
    <glyph glyph-name="agrave" unicode="&#xe0;" horiz-adv-x="1108" 
d="M221 434c0 -114.667 25.833 -203.001 77.5 -265.001s125.5 -93 221.5 -93c93.333 0 166.833 33.833 220.5 101.5s80.5 160.834 80.5 279.501c0 108.667 -26.667 194.167 -80 256.5s-126.333 93.5 -219 93.5s-166 -33.167 -220 -99.5s-81 -157.5 -81 -273.5z
M819 -0.000976562v162c-29.333 -65.333 -70.5 -115.166 -123.5 -149.499s-115.5 -51.5 -187.5 -51.5c-127.333 0 -229.833 43.667 -307.5 131s-116.5 202.666 -116.5 345.999c0 142 38.333 257.833 115 347.5s175.667 134.5 297 134.5c75.333 0 140.5 -16.5 195.5 -49.5
s97.5 -81.5 127.5 -145.5v162h123v-887h-123zM688 1030h-94l-283 350h164z" />
    <glyph glyph-name="aacute" unicode="&#xe1;" horiz-adv-x="1108" 
d="M221 434c0 -114.667 25.833 -203.001 77.5 -265.001s125.5 -93 221.5 -93c93.333 0 166.833 33.833 220.5 101.5s80.5 160.834 80.5 279.501c0 108.667 -26.667 194.167 -80 256.5s-126.333 93.5 -219 93.5s-166 -33.167 -220 -99.5s-81 -157.5 -81 -273.5z
M819 -0.000976562v162c-29.333 -65.333 -70.5 -115.166 -123.5 -149.499s-115.5 -51.5 -187.5 -51.5c-127.333 0 -229.833 43.667 -307.5 131s-116.5 202.666 -116.5 345.999c0 142 38.333 257.833 115 347.5s175.667 134.5 297 134.5c75.333 0 140.5 -16.5 195.5 -49.5
s97.5 -81.5 127.5 -145.5v162h123v-887h-123zM422 1030l213 350h164l-283 -350h-94z" />
    <glyph glyph-name="acircumflex" unicode="&#xe2;" horiz-adv-x="1108" 
d="M221 434c0 -114.667 25.833 -203.001 77.5 -265.001s125.5 -93 221.5 -93c93.333 0 166.833 33.833 220.5 101.5s80.5 160.834 80.5 279.501c0 108.667 -26.667 194.167 -80 256.5s-126.333 93.5 -219 93.5s-166 -33.167 -220 -99.5s-81 -157.5 -81 -273.5z
M819 -0.000976562v162c-29.333 -65.333 -70.5 -115.166 -123.5 -149.499s-115.5 -51.5 -187.5 -51.5c-127.333 0 -229.833 43.667 -307.5 131s-116.5 202.666 -116.5 345.999c0 142 38.333 257.833 115 347.5s175.667 134.5 297 134.5c75.333 0 140.5 -16.5 195.5 -49.5
s97.5 -81.5 127.5 -145.5v162h123v-887h-123zM268 1030l213 350h146l213 -350h-92l-193 250l-195 -250h-92z" />
    <glyph glyph-name="atilde" unicode="&#xe3;" horiz-adv-x="1108" 
d="M221 434c0 -114.667 25.833 -203.001 77.5 -265.001s125.5 -93 221.5 -93c93.333 0 166.833 33.833 220.5 101.5s80.5 160.834 80.5 279.501c0 108.667 -26.667 194.167 -80 256.5s-126.333 93.5 -219 93.5s-166 -33.167 -220 -99.5s-81 -157.5 -81 -273.5z
M819 -0.000976562v162c-29.333 -65.333 -70.5 -115.166 -123.5 -149.499s-115.5 -51.5 -187.5 -51.5c-127.333 0 -229.833 43.667 -307.5 131s-116.5 202.666 -116.5 345.999c0 142 38.333 257.833 115 347.5s175.667 134.5 297 134.5c75.333 0 140.5 -16.5 195.5 -49.5
s97.5 -81.5 127.5 -145.5v162h123v-887h-123zM846 1294c-16.667 -60 -41.833 -105.667 -75.5 -137s-74.834 -47 -123.501 -47c-10.667 0 -21.334 0.833008 -32.001 2.5s-21.667 4.16699 -33 7.5l-80 27c-8 2.66699 -16.833 4.66699 -26.5 6s-20.167 2 -31.5 2
c-20.667 0 -38.5 -5 -53.5 -15s-27.833 -25.333 -38.5 -46h-88c14.667 58 38.834 102.167 72.501 132.5s75.834 45.5 126.501 45.5c11.333 0 22 -0.666992 32 -2s19 -3.33301 27 -6l78 -27c11.333 -3.33301 22 -5.83301 32 -7.5s19.667 -2.5 29 -2.5
c24 0 44.167 5.66699 60.5 17s28.5 28 36.5 50h88z" />
    <glyph glyph-name="adieresis" unicode="&#xe4;" horiz-adv-x="1108" 
d="M221 434c0 -114.667 25.833 -203.001 77.5 -265.001s125.5 -93 221.5 -93c93.333 0 166.833 33.833 220.5 101.5s80.5 160.834 80.5 279.501c0 108.667 -26.667 194.167 -80 256.5s-126.333 93.5 -219 93.5s-166 -33.167 -220 -99.5s-81 -157.5 -81 -273.5z
M819 -0.000976562v162c-29.333 -65.333 -70.5 -115.166 -123.5 -149.499s-115.5 -51.5 -187.5 -51.5c-127.333 0 -229.833 43.667 -307.5 131s-116.5 202.666 -116.5 345.999c0 142 38.333 257.833 115 347.5s175.667 134.5 297 134.5c75.333 0 140.5 -16.5 195.5 -49.5
s97.5 -81.5 127.5 -145.5v162h123v-887h-123zM633 1188c0 26.667 9.66602 49.667 28.999 69s42.333 29 69 29s49.334 -9.66699 68.001 -29s28 -42.333 28 -69c0 -28 -9 -51 -27 -69s-41 -27 -69 -27s-51.333 9 -70 27s-28 41 -28 69zM282.999 1188
c0 26.667 9.33203 49.665 27.999 68.998s41.334 29 68.001 29s49.667 -9.66699 69 -29s29 -42.333 29 -69c0 -27.333 -9.33301 -50.166 -28 -68.499s-42 -27.5 -70 -27.5s-51 8.83301 -69 26.5s-27 40.834 -27 69.501z" />
    <glyph glyph-name="aring" unicode="&#xe5;" horiz-adv-x="1108" 
d="M221 434c0 -114.667 25.833 -203.001 77.5 -265.001s125.5 -93 221.5 -93c93.333 0 166.833 33.833 220.5 101.5s80.5 160.834 80.5 279.501c0 108.667 -26.667 194.167 -80 256.5s-126.333 93.5 -219 93.5s-166 -33.167 -220 -99.5s-81 -157.5 -81 -273.5z
M819 -0.000976562v162c-29.333 -65.333 -70.5 -115.166 -123.5 -149.499s-115.5 -51.5 -187.5 -51.5c-127.333 0 -229.833 43.667 -307.5 131s-116.5 202.666 -116.5 345.999c0 142 38.333 257.833 115 347.5s175.667 134.5 297 134.5c75.333 0 140.5 -16.5 195.5 -49.5
s97.5 -81.5 127.5 -145.5v162h123v-887h-123zM393 1221c0 -37.333 13 -69 39 -95s57.333 -39 94 -39c37.333 0 68.833 13 94.5 39s38.5 57.667 38.5 95s-12.833 69.166 -38.5 95.499s-57.167 39.5 -94.5 39.5c-36.667 0 -68 -13.167 -94 -39.5s-39 -58.166 -39 -95.499z
M291 1221c0 66 22.5 121.667 67.5 167s100.833 68 167.5 68s122.667 -22.667 168 -68s68 -101 68 -167s-22.667 -121.833 -68 -167.5s-101.333 -68.5 -168 -68.5c-65.333 0 -120.833 22.833 -166.5 68.5s-68.5 101.5 -68.5 167.5z" />
    <glyph glyph-name="ae" unicode="&#xe6;" horiz-adv-x="1624" 
d="M1534 438h-704.999c4 -114 32.167 -203.167 84.5 -267.5s122.5 -96.5 210.5 -96.5c68.667 0 127.834 17.5 177.501 52.5s90.167 87.833 121.5 158.5l117 -62c-46 -89.333 -102.833 -155.666 -170.5 -198.999s-148.834 -65 -243.501 -65c-82 0 -152.667 18 -212 54
s-109.333 91.667 -150 167c-24.667 -70 -68.167 -124.333 -130.5 -163s-137.5 -58 -225.5 -58c-101.333 0 -182.666 26.333 -243.999 79s-92 122 -92 208c0 88 33.167 159.5 99.5 214.5s153.833 82.5 262.5 82.5c58 0 110 -7.33301 156 -22s86 -36.667 120 -66
c1.33301 8 2.16602 16.5 2.49902 25.5s0.5 22.167 0.5 39.5c0 99.333 -22.5 173 -67.5 221s-114.167 72 -207.5 72c-50.667 0 -100.834 -6.33301 -150.501 -19s-99.834 -32.334 -150.501 -59.001l2 131c50 18 100.5 31.5 151.5 40.5s103.833 13.5 158.5 13.5
c90 0 165.333 -16.5 226 -49.5s99.334 -78.833 116.001 -137.5c32 59.333 76.667 105.333 134 138s122.333 49 195 49c126 0 226.5 -41.667 301.5 -125s112.5 -195.333 112.5 -336v-21zM838.001 543h551c-5.33301 81.333 -32.333 144.666 -81 189.999s-114 68 -196 68
c-74 0 -136.167 -23.667 -186.5 -71s-79.5 -109.666 -87.5 -186.999zM702.001 270c0 50.667 -22.5 91.333 -67.5 122s-104.833 46 -179.5 46c-78 0 -138.833 -16.667 -182.5 -50s-65.5 -79.333 -65.5 -138c0 -56.667 20.167 -100.167 60.5 -130.5s97.833 -45.5 172.5 -45.5
c77.333 0 140.333 18.333 189 55s73 83.667 73 141z" />
    <glyph glyph-name="ccedilla" unicode="&#xe7;" horiz-adv-x="934" 
d="M854 725c-41.333 28.667 -85.333 50.165 -132 64.498s-94.667 21.5 -144 21.5c-110 0 -197.667 -35.167 -263 -105.5s-98 -164.166 -98 -281.499c0 -104 33.833 -189.667 101.5 -257s154.167 -101 259.5 -101c48 0 96.5 8.33301 145.5 25s97.167 41.667 144.5 75v-135
c-43.333 -24.667 -91.333 -43.167 -144 -55.5s-109 -18.5 -169 -18.5c-135.333 0 -246.333 44.5 -333 133.5s-130 202.833 -130 341.5c0 144.667 45.167 262.167 135.5 352.5s207.833 135.5 352.5 135.5c53.333 0 103.5 -5.16699 150.5 -15.5s88.833 -25.166 125.5 -44.499z
M334 -379.002l-0.00292969 69.998c65.333 -13.333 113.666 -22.166 144.999 -26.499s58 -6.5 80 -6.5c42 0 73.333 7.33301 94 22s31 36.667 31 66c0 30.667 -11.667 53.334 -35 68.001s-58.666 22 -105.999 22c-4 0 -10.667 -0.333008 -20 -1s-16.333 -1 -21 -1v166h61
v-100h15c68.667 0 121.334 -13.167 158.001 -39.5s55 -63.833 55 -112.5c0 -54.667 -18 -95.667 -54 -123s-89.667 -41 -161 -41c-33.333 0 -69.666 3 -108.999 9s-83.666 15.333 -132.999 28z" />
    <glyph glyph-name="egrave" unicode="&#xe8;" horiz-adv-x="1018" 
d="M780 545c-6 81.333 -33 144.333 -81 189s-113 67 -195 67c-74.667 0 -137.167 -23.333 -187.5 -70s-79.5 -108.667 -87.5 -186h551zM926 440l-705 0.000976562c3.33301 -114.667 32 -204.667 86 -270s126.333 -98 217 -98c65.333 0 122.666 17.667 171.999 53
s90.333 88.666 123 159.999l113 -62c-45.333 -90 -100.833 -156.167 -166.5 -198.5s-146.167 -63.5 -241.5 -63.5c-130 0 -235.167 43.5 -315.5 130.5s-120.5 201.167 -120.5 342.5c0 145.333 39.833 262.666 119.5 351.999s183.834 134 312.501 134
c122.667 0 221 -41.167 295 -123.5s111 -192.166 111 -329.499v-27zM643 1030h-94l-283 350h164z" />
    <glyph glyph-name="eacute" unicode="&#xe9;" horiz-adv-x="1018" 
d="M780 545c-6 81.333 -33 144.333 -81 189s-113 67 -195 67c-74.667 0 -137.167 -23.333 -187.5 -70s-79.5 -108.667 -87.5 -186h551zM926 440l-705 0.000976562c3.33301 -114.667 32 -204.667 86 -270s126.333 -98 217 -98c65.333 0 122.666 17.667 171.999 53
s90.333 88.666 123 159.999l113 -62c-45.333 -90 -100.833 -156.167 -166.5 -198.5s-146.167 -63.5 -241.5 -63.5c-130 0 -235.167 43.5 -315.5 130.5s-120.5 201.167 -120.5 342.5c0 145.333 39.833 262.666 119.5 351.999s183.834 134 312.501 134
c122.667 0 221 -41.167 295 -123.5s111 -192.166 111 -329.499v-27zM377 1030l213 350h164l-283 -350h-94z" />
    <glyph glyph-name="ecircumflex" unicode="&#xea;" horiz-adv-x="1018" 
d="M780 545c-6 81.333 -33 144.333 -81 189s-113 67 -195 67c-74.667 0 -137.167 -23.333 -187.5 -70s-79.5 -108.667 -87.5 -186h551zM926 440l-705 0.000976562c3.33301 -114.667 32 -204.667 86 -270s126.333 -98 217 -98c65.333 0 122.666 17.667 171.999 53
s90.333 88.666 123 159.999l113 -62c-45.333 -90 -100.833 -156.167 -166.5 -198.5s-146.167 -63.5 -241.5 -63.5c-130 0 -235.167 43.5 -315.5 130.5s-120.5 201.167 -120.5 342.5c0 145.333 39.833 262.666 119.5 351.999s183.834 134 312.501 134
c122.667 0 221 -41.167 295 -123.5s111 -192.166 111 -329.499v-27zM223 1030l213 350h146l213 -350h-92l-193 250l-195 -250h-92z" />
    <glyph glyph-name="edieresis" unicode="&#xeb;" horiz-adv-x="1018" 
d="M780 545c-6 81.333 -33 144.333 -81 189s-113 67 -195 67c-74.667 0 -137.167 -23.333 -187.5 -70s-79.5 -108.667 -87.5 -186h551zM926 440l-705 0.000976562c3.33301 -114.667 32 -204.667 86 -270s126.333 -98 217 -98c65.333 0 122.666 17.667 171.999 53
s90.333 88.666 123 159.999l113 -62c-45.333 -90 -100.833 -156.167 -166.5 -198.5s-146.167 -63.5 -241.5 -63.5c-130 0 -235.167 43.5 -315.5 130.5s-120.5 201.167 -120.5 342.5c0 145.333 39.833 262.666 119.5 351.999s183.834 134 312.501 134
c122.667 0 221 -41.167 295 -123.5s111 -192.166 111 -329.499v-27zM588 1188c0 26.667 9.66602 49.667 28.999 69s42.333 29 69 29s49.334 -9.66699 68.001 -29s28 -42.333 28 -69c0 -28 -9 -51 -27 -69s-41 -27 -69 -27s-51.333 9 -70 27s-28 41 -28 69zM237.999 1188
c0 26.667 9.33203 49.665 27.999 68.998s41.334 29 68.001 29s49.667 -9.66699 69 -29s29 -42.333 29 -69c0 -27.333 -9.33301 -50.166 -28 -68.499s-42 -27.5 -70 -27.5s-51 8.83301 -69 26.5s-27 40.834 -27 69.501z" />
    <glyph glyph-name="igrave" unicode="&#xec;" horiz-adv-x="471" 
d="M172 0v887h127v-887h-127zM369 1030h-94l-283 350h164z" />
    <glyph glyph-name="iacute" unicode="&#xed;" horiz-adv-x="471" 
d="M172 0v887h127v-887h-127zM103 1030l213 350h164l-283 -350h-94z" />
    <glyph glyph-name="icircumflex" unicode="&#xee;" horiz-adv-x="471" 
d="M172 0v887h127v-887h-127zM-51 1030l213 350h146l213 -350h-92l-193 250l-195 -250h-92z" />
    <glyph glyph-name="idieresis" unicode="&#xef;" horiz-adv-x="471" 
d="M172 0v887h127v-887h-127zM314 1188c0 26.667 9.66602 49.667 28.999 69s42.333 29 69 29s49.334 -9.66699 68.001 -29s28 -42.333 28 -69c0 -28 -9 -51 -27 -69s-41 -27 -69 -27s-51.333 9 -70 27s-28 41 -28 69zM-36.001 1188c0 26.667 9.33203 49.665 27.999 68.998
s41.334 29 68.001 29s49.667 -9.66699 69 -29s29 -42.333 29 -69c0 -27.333 -9.33301 -50.166 -28 -68.499s-42 -27.5 -70 -27.5s-51 8.83301 -69 26.5s-27 40.834 -27 69.501z" />
    <glyph glyph-name="eth" unicode="&#xf0;" horiz-adv-x="1139" 
d="M567 76c96.667 0 178.832 34.167 246.499 102.5s101.5 151.5 101.5 249.5c0 98.667 -33.667 182 -101 250s-149.666 102 -246.999 102s-179.666 -34 -246.999 -102s-101 -151.333 -101 -250c0 -98 33.667 -181.167 101 -249.5s149.666 -102.5 246.999 -102.5z
M892.998 741c-23.333 87.333 -62.6689 173 -118.002 257s-124 162.333 -206 235l-313 -146l-47 82l276 131c-30 24.667 -64.667 49.834 -104 75.501s-85.666 53.167 -138.999 82.5l59 90c68 -39.333 126.5 -75.333 175.5 -108s89.5 -62 121.5 -88l342 159l51 -84l-307 -147
c122.667 -122.667 214.834 -249.5 276.501 -380.5s92.5 -265.5 92.5 -403.5c0 -162.667 -44.167 -292.5 -132.5 -389.5s-206.166 -145.5 -353.499 -145.5c-62.667 0 -124 12.167 -184 36.5s-113.333 58.5 -160 102.5c-45.333 43.333 -79.833 92.666 -103.5 147.999
s-35.5 114 -35.5 176s12 121.167 36 177.5s58.333 105.833 103 148.5c45.333 43.333 96.666 77 153.999 101s114.666 36 171.999 36c60.667 0 119.334 -12 176.001 -36s112.667 -60.667 168 -110z" />
    <glyph glyph-name="ntilde" unicode="&#xf1;" horiz-adv-x="1067" 
d="M164 0v887h117v-137c36 56.667 80.167 99.167 132.5 127.5s112.5 42.5 180.5 42.5c100.667 0 179 -28 235 -84s84 -134 84 -234v-602h-125v547c0 88.667 -18.5 154.5 -55.5 197.5s-94.167 64.5 -171.5 64.5c-94 0 -163.167 -27.833 -207.5 -83.5
s-66.5 -143.167 -66.5 -262.5v-463h-123zM826 1294c-16.667 -60 -41.833 -105.667 -75.5 -137s-74.834 -47 -123.501 -47c-10.667 0 -21.334 0.833008 -32.001 2.5s-21.667 4.16699 -33 7.5l-80 27c-8 2.66699 -16.833 4.66699 -26.5 6s-20.167 2 -31.5 2
c-20.667 0 -38.5 -5 -53.5 -15s-27.833 -25.333 -38.5 -46h-88c14.667 58 38.834 102.167 72.501 132.5s75.834 45.5 126.501 45.5c11.333 0 22 -0.666992 32 -2s19 -3.33301 27 -6l78 -27c11.333 -3.33301 22 -5.83301 32 -7.5s19.667 -2.5 29 -2.5
c24 0 44.167 5.66699 60.5 17s28.5 28 36.5 50h88z" />
    <glyph glyph-name="ograve" unicode="&#xf2;" horiz-adv-x="1143" 
d="M571 76c97.333 0 179.833 35.167 247.5 105.5s101.5 156.5 101.5 258.5c0 103.333 -33.667 190 -101 260s-150 105 -248 105c-97.333 0 -179.666 -35 -246.999 -105s-101 -156.667 -101 -260c0 -102 33.667 -188.167 101 -258.5s149.666 -105.5 246.999 -105.5zM567 -39
c-63.333 0 -123.998 12.502 -181.998 37.502s-110.667 60.833 -158 107.5c-44.667 44 -78.667 94.667 -102 152s-35 118.666 -35 183.999c0 64.667 12 126 36 184s58.333 109.333 103 154c45.333 45.333 97 80 155 104s119 36 183 36c65.333 0 127.5 -12 186.5 -36
s111.5 -58.667 157.5 -104s81.167 -97 105.5 -155s36.5 -119 36.5 -183s-12 -124.833 -36 -182.5s-58.667 -108.834 -104 -153.501c-46.667 -46.667 -99.834 -82.5 -159.501 -107.5s-121.834 -37.5 -186.501 -37.5zM704.002 1030h-94l-283 350h164z" />
    <glyph glyph-name="oacute" unicode="&#xf3;" horiz-adv-x="1143" 
d="M571 76c97.333 0 179.833 35.167 247.5 105.5s101.5 156.5 101.5 258.5c0 103.333 -33.667 190 -101 260s-150 105 -248 105c-97.333 0 -179.666 -35 -246.999 -105s-101 -156.667 -101 -260c0 -102 33.667 -188.167 101 -258.5s149.666 -105.5 246.999 -105.5zM567 -39
c-63.333 0 -123.998 12.502 -181.998 37.502s-110.667 60.833 -158 107.5c-44.667 44 -78.667 94.667 -102 152s-35 118.666 -35 183.999c0 64.667 12 126 36 184s58.333 109.333 103 154c45.333 45.333 97 80 155 104s119 36 183 36c65.333 0 127.5 -12 186.5 -36
s111.5 -58.667 157.5 -104s81.167 -97 105.5 -155s36.5 -119 36.5 -183s-12 -124.833 -36 -182.5s-58.667 -108.834 -104 -153.501c-46.667 -46.667 -99.834 -82.5 -159.501 -107.5s-121.834 -37.5 -186.501 -37.5zM438.002 1030l213 350h164l-283 -350h-94z" />
    <glyph glyph-name="ocircumflex" unicode="&#xf4;" horiz-adv-x="1143" 
d="M571 76c97.333 0 179.833 35.167 247.5 105.5s101.5 156.5 101.5 258.5c0 103.333 -33.667 190 -101 260s-150 105 -248 105c-97.333 0 -179.666 -35 -246.999 -105s-101 -156.667 -101 -260c0 -102 33.667 -188.167 101 -258.5s149.666 -105.5 246.999 -105.5zM567 -39
c-63.333 0 -123.998 12.502 -181.998 37.502s-110.667 60.833 -158 107.5c-44.667 44 -78.667 94.667 -102 152s-35 118.666 -35 183.999c0 64.667 12 126 36 184s58.333 109.333 103 154c45.333 45.333 97 80 155 104s119 36 183 36c65.333 0 127.5 -12 186.5 -36
s111.5 -58.667 157.5 -104s81.167 -97 105.5 -155s36.5 -119 36.5 -183s-12 -124.833 -36 -182.5s-58.667 -108.834 -104 -153.501c-46.667 -46.667 -99.834 -82.5 -159.501 -107.5s-121.834 -37.5 -186.501 -37.5zM284.002 1030l213 350h146l213 -350h-92l-193 250
l-195 -250h-92z" />
    <glyph glyph-name="otilde" unicode="&#xf5;" horiz-adv-x="1143" 
d="M571 76c97.333 0 179.833 35.167 247.5 105.5s101.5 156.5 101.5 258.5c0 103.333 -33.667 190 -101 260s-150 105 -248 105c-97.333 0 -179.666 -35 -246.999 -105s-101 -156.667 -101 -260c0 -102 33.667 -188.167 101 -258.5s149.666 -105.5 246.999 -105.5zM567 -39
c-63.333 0 -123.998 12.502 -181.998 37.502s-110.667 60.833 -158 107.5c-44.667 44 -78.667 94.667 -102 152s-35 118.666 -35 183.999c0 64.667 12 126 36 184s58.333 109.333 103 154c45.333 45.333 97 80 155 104s119 36 183 36c65.333 0 127.5 -12 186.5 -36
s111.5 -58.667 157.5 -104s81.167 -97 105.5 -155s36.5 -119 36.5 -183s-12 -124.833 -36 -182.5s-58.667 -108.834 -104 -153.501c-46.667 -46.667 -99.834 -82.5 -159.501 -107.5s-121.834 -37.5 -186.501 -37.5zM862.002 1294c-16.667 -60 -41.833 -105.667 -75.5 -137
s-74.834 -47 -123.501 -47c-10.667 0 -21.334 0.833008 -32.001 2.5s-21.667 4.16699 -33 7.5l-80 27c-8 2.66699 -16.833 4.66699 -26.5 6s-20.167 2 -31.5 2c-20.667 0 -38.5 -5 -53.5 -15s-27.833 -25.333 -38.5 -46h-88c14.667 58 38.834 102.167 72.501 132.5
s75.834 45.5 126.501 45.5c11.333 0 22 -0.666992 32 -2s19 -3.33301 27 -6l78 -27c11.333 -3.33301 22 -5.83301 32 -7.5s19.667 -2.5 29 -2.5c24 0 44.167 5.66699 60.5 17s28.5 28 36.5 50h88z" />
    <glyph glyph-name="odieresis" unicode="&#xf6;" horiz-adv-x="1143" 
d="M571 76c97.333 0 179.833 35.167 247.5 105.5s101.5 156.5 101.5 258.5c0 103.333 -33.667 190 -101 260s-150 105 -248 105c-97.333 0 -179.666 -35 -246.999 -105s-101 -156.667 -101 -260c0 -102 33.667 -188.167 101 -258.5s149.666 -105.5 246.999 -105.5zM567 -39
c-63.333 0 -123.998 12.502 -181.998 37.502s-110.667 60.833 -158 107.5c-44.667 44 -78.667 94.667 -102 152s-35 118.666 -35 183.999c0 64.667 12 126 36 184s58.333 109.333 103 154c45.333 45.333 97 80 155 104s119 36 183 36c65.333 0 127.5 -12 186.5 -36
s111.5 -58.667 157.5 -104s81.167 -97 105.5 -155s36.5 -119 36.5 -183s-12 -124.833 -36 -182.5s-58.667 -108.834 -104 -153.501c-46.667 -46.667 -99.834 -82.5 -159.501 -107.5s-121.834 -37.5 -186.501 -37.5zM649.002 1188c0 26.667 9.66602 49.667 28.999 69
s42.333 29 69 29s49.334 -9.66699 68.001 -29s28 -42.333 28 -69c0 -28 -9 -51 -27 -69s-41 -27 -69 -27s-51.333 9 -70 27s-28 41 -28 69zM299.001 1188c0 26.667 9.33203 49.665 27.999 68.998s41.334 29 68.001 29s49.667 -9.66699 69 -29s29 -42.333 29 -69
c0 -27.333 -9.33301 -50.166 -28 -68.499s-42 -27.5 -70 -27.5s-51 8.83301 -69 26.5s-27 40.834 -27 69.501z" />
    <glyph glyph-name="divide" unicode="&#xf7;" horiz-adv-x="1706" 
d="M854 365c27.333 0 50.5 -9.83301 69.5 -29.5s28.5 -43.5 28.5 -71.5c0 -26.667 -9.5 -49.667 -28.5 -69s-42.167 -29 -69.5 -29s-50.5 9.5 -69.5 28.5s-28.5 42.167 -28.5 69.5s9.66699 51 29 71s42.333 30 69 30zM1452 651v-82h-1198v82h1198zM854 1055
c27.333 0 50.5 -9.49902 69.5 -28.499s28.5 -42.5 28.5 -70.5c0 -26.667 -9.5 -50 -28.5 -70s-42.167 -30 -69.5 -30s-50.5 9.83301 -69.5 29.5s-28.5 43.167 -28.5 70.5s9.5 50.666 28.5 69.999s42.167 29 69.5 29z" />
    <glyph glyph-name="oslash" unicode="&#xf8;" horiz-adv-x="1143" 
d="M147 -41l-55 59.001l111 113c-39.333 48.667 -68.333 97.667 -87 147s-28 100.666 -28 153.999c0 138.667 46.5 254.667 139.5 348s208.833 140 347.5 140c56.667 0 109.334 -9 158.001 -27s96.667 -46 144 -84l110 113l62 -58l-113 -110
c39.333 -48.667 68.666 -98.5 87.999 -149.5s29 -104.5 29 -160.5c0 -138 -47.167 -253 -141.5 -345s-211.833 -138 -352.5 -138c-54.667 0 -106 9.16699 -154 27.5s-95 46.833 -141 85.5zM346 160.001c34 -28 68.833 -48.667 104.5 -62s73.167 -20 112.5 -20
c102.667 0 187.5 34.5 254.5 103.5s100.5 156.5 100.5 262.5c0 40 -5.66699 77.833 -17 113.5s-28.333 71.167 -51 106.5zM793 723.001c-30 28 -62.333 48.668 -97 62.001s-72.667 20 -114 20c-106 0 -192.333 -34.5 -259 -103.5s-100 -158.167 -100 -267.5
c0 -38.667 5.66699 -75.334 17 -110.001s29 -69 53 -103z" />
    <glyph glyph-name="ugrave" unicode="&#xf9;" horiz-adv-x="1079" 
d="M287 887l0.000976562 -443c0 -134.667 19.167 -229.667 57.5 -285s103.166 -83 194.499 -83c90.667 0 155.667 28 195 84s59 150.667 59 284v443h122v-506c0 -138 -31.667 -242.5 -95 -313.5s-156.333 -106.5 -279 -106.5c-123.333 0 -217 35.5 -281 106.5
s-96 175.5 -96 313.5v506h123zM674.001 1030h-94l-283 350h164z" />
    <glyph glyph-name="uacute" unicode="&#xfa;" horiz-adv-x="1079" 
d="M287 887l0.000976562 -443c0 -134.667 19.167 -229.667 57.5 -285s103.166 -83 194.499 -83c90.667 0 155.667 28 195 84s59 150.667 59 284v443h122v-506c0 -138 -31.667 -242.5 -95 -313.5s-156.333 -106.5 -279 -106.5c-123.333 0 -217 35.5 -281 106.5
s-96 175.5 -96 313.5v506h123zM408.001 1030l213 350h164l-283 -350h-94z" />
    <glyph glyph-name="ucircumflex" unicode="&#xfb;" horiz-adv-x="1079" 
d="M287 887l0.000976562 -443c0 -134.667 19.167 -229.667 57.5 -285s103.166 -83 194.499 -83c90.667 0 155.667 28 195 84s59 150.667 59 284v443h122v-506c0 -138 -31.667 -242.5 -95 -313.5s-156.333 -106.5 -279 -106.5c-123.333 0 -217 35.5 -281 106.5
s-96 175.5 -96 313.5v506h123zM254.001 1030l213 350h146l213 -350h-92l-193 250l-195 -250h-92z" />
    <glyph glyph-name="udieresis" unicode="&#xfc;" horiz-adv-x="1079" 
d="M287 887l0.000976562 -443c0 -134.667 19.167 -229.667 57.5 -285s103.166 -83 194.499 -83c90.667 0 155.667 28 195 84s59 150.667 59 284v443h122v-506c0 -138 -31.667 -242.5 -95 -313.5s-156.333 -106.5 -279 -106.5c-123.333 0 -217 35.5 -281 106.5
s-96 175.5 -96 313.5v506h123zM619.001 1188c0 26.667 9.66602 49.667 28.999 69s42.333 29 69 29s49.334 -9.66699 68.001 -29s28 -42.333 28 -69c0 -28 -9 -51 -27 -69s-41 -27 -69 -27s-51.333 9 -70 27s-28 41 -28 69zM269 1188c0 26.667 9.33203 49.665 27.999 68.998
s41.334 29 68.001 29s49.667 -9.66699 69 -29s29 -42.333 29 -69c0 -27.333 -9.33301 -50.166 -28 -68.499s-42 -27.5 -70 -27.5s-51 8.83301 -69 26.5s-27 40.834 -27 69.501z" />
    <glyph glyph-name="yacute" unicode="&#xfd;" horiz-adv-x="825" 
d="M43 887h131l254 -694l234 694h131l-459 -1333h-127l155 452zM281 1030l213 350h164l-283 -350h-94z" />
    <glyph glyph-name="thorn" unicode="&#xfe;" horiz-adv-x="1108" 
d="M883 438c0 114.667 -26.167 204.833 -78.5 270.5s-124.5 98.5 -216.5 98.5c-94.667 0 -168.834 -31.833 -222.501 -95.5s-80.5 -151.167 -80.5 -262.5c0 -113.333 28.833 -203.833 86.5 -271.5s133.834 -101.5 228.501 -101.5c89.333 0 158.833 31.833 208.5 95.5
s74.5 152.5 74.5 266.5zM283 163.999l0.000976562 -609.999h-119v1996h119v-829c27.333 62 69 110.667 125 146s120 53 192 53c124.667 0 225.167 -43.833 301.5 -131.5s114.5 -203.834 114.5 -348.501c0 -146 -37.167 -262.333 -111.5 -349s-173.833 -130 -298.5 -130
c-71.333 0 -134.333 17.167 -189 51.5s-99.334 84.833 -134.001 151.5z" />
    <glyph glyph-name="ydieresis" unicode="&#xff;" horiz-adv-x="825" 
d="M43 887h131l254 -694l234 694h131l-459 -1333h-127l155 452zM492 1188c0 26.667 9.66602 49.667 28.999 69s42.333 29 69 29s49.334 -9.66699 68.001 -29s28 -42.333 28 -69c0 -28 -9 -51 -27 -69s-41 -27 -69 -27s-51.333 9 -70 27s-28 41 -28 69zM141.999 1188
c0 26.667 9.33203 49.665 27.999 68.998s41.334 29 68.001 29s49.667 -9.66699 69 -29s29 -42.333 29 -69c0 -27.333 -9.33301 -50.166 -28 -68.499s-42 -27.5 -70 -27.5s-51 8.83301 -69 26.5s-27 40.834 -27 69.501z" />
    <glyph glyph-name="Cacute" unicode="&#x106;" horiz-adv-x="1464" 
d="M1358 1196c-72.667 62.667 -147.004 109.001 -223.004 139.001s-156 45 -240 45c-189.333 0 -343.166 -60 -461.499 -180s-177.5 -276.333 -177.5 -469c0 -96.667 14.5 -183.667 43.5 -261s73.167 -146 132.5 -206c58.667 -58.667 125.834 -103.334 201.501 -134.001
s156.834 -46 243.501 -46c84 0 166 14.333 246 43s155.667 71 227 127v-156c-72 -44 -148.167 -77.833 -228.5 -101.5s-159.833 -35.5 -238.5 -35.5c-106 0 -207.333 19 -304 57s-179.667 91.333 -249 160c-71.333 70.667 -125.333 152.667 -162 246
s-55 195.666 -55 306.999c0 109.333 18.833 211.333 56.5 306s91.834 176.334 162.501 245.001c68.667 67.333 151.5 120 248.5 158s197.833 57 302.5 57c93.333 0 179.833 -12.833 259.5 -38.5s152.167 -64.167 217.5 -115.5zM740.996 1608l213 350h164l-283 -350h-94z" />
    <glyph glyph-name="cacute" unicode="&#x107;" horiz-adv-x="934" 
d="M854 725c-41.333 28.667 -85.333 50.165 -132 64.498s-94.667 21.5 -144 21.5c-110 0 -197.667 -35.167 -263 -105.5s-98 -164.166 -98 -281.499c0 -104 33.833 -189.667 101.5 -257s154.167 -101 259.5 -101c48 0 96.5 8.33301 145.5 25s97.167 41.667 144.5 75v-135
c-43.333 -24.667 -91.333 -43.167 -144 -55.5s-109 -18.5 -169 -18.5c-135.333 0 -246.333 44.5 -333 133.5s-130 202.833 -130 341.5c0 144.667 45.167 262.167 135.5 352.5s207.833 135.5 352.5 135.5c53.333 0 103.5 -5.16699 150.5 -15.5s88.833 -25.166 125.5 -44.499z
M428 1030l213 350h164l-283 -350h-94z" />
    <glyph glyph-name="Ccaron" unicode="&#x10c;" horiz-adv-x="1464" 
d="M1358 1196c-72.667 62.667 -147.004 109.001 -223.004 139.001s-156 45 -240 45c-189.333 0 -343.166 -60 -461.499 -180s-177.5 -276.333 -177.5 -469c0 -96.667 14.5 -183.667 43.5 -261s73.167 -146 132.5 -206c58.667 -58.667 125.834 -103.334 201.501 -134.001
s156.834 -46 243.501 -46c84 0 166 14.333 246 43s155.667 71 227 127v-156c-72 -44 -148.167 -77.833 -228.5 -101.5s-159.833 -35.5 -238.5 -35.5c-106 0 -207.333 19 -304 57s-179.667 91.333 -249 160c-71.333 70.667 -125.333 152.667 -162 246
s-55 195.666 -55 306.999c0 109.333 18.833 211.333 56.5 306s91.834 176.334 162.501 245.001c68.667 67.333 151.5 120 248.5 158s197.833 57 302.5 57c93.333 0 179.833 -12.833 259.5 -38.5s152.167 -64.167 217.5 -115.5zM1159 1958l-213 -350h-146l-213 350h92
l195 -250l193 250h92z" />
    <glyph glyph-name="ccaron" unicode="&#x10d;" horiz-adv-x="934" 
d="M854 725c-41.333 28.667 -85.333 50.165 -132 64.498s-94.667 21.5 -144 21.5c-110 0 -197.667 -35.167 -263 -105.5s-98 -164.166 -98 -281.499c0 -104 33.833 -189.667 101.5 -257s154.167 -101 259.5 -101c48 0 96.5 8.33301 145.5 25s97.167 41.667 144.5 75v-135
c-43.333 -24.667 -91.333 -43.167 -144 -55.5s-109 -18.5 -169 -18.5c-135.333 0 -246.333 44.5 -333 133.5s-130 202.833 -130 341.5c0 144.667 45.167 262.167 135.5 352.5s207.833 135.5 352.5 135.5c53.333 0 103.5 -5.16699 150.5 -15.5s88.833 -25.166 125.5 -44.499z
M846 1380l-213 -350h-146l-213 350h92l195 -250l193 250h92z" />
    <glyph glyph-name="dcroat" unicode="&#x111;" horiz-adv-x="1116" 
d="M225 434c0 -114.667 25.833 -203.001 77.5 -265.001s125.5 -93 221.5 -93c92.667 0 165.667 33.833 219 101.5s80 160.834 80 279.501c0 108.667 -26.5 194.167 -79.5 256.5s-125.5 93.5 -217.5 93.5s-165.167 -33.333 -219.5 -100s-81.5 -157.667 -81.5 -273z
M821 -0.000976562l0.00195312 162c-28.667 -65.333 -69.334 -115.166 -122.001 -149.499s-115 -51.5 -187 -51.5c-127.333 0 -229.833 43.667 -307.5 131s-116.5 202.666 -116.5 345.999c0 141.333 38.5 257 115.5 347s175.833 135 296.5 135
c75.333 0 140.166 -16.5 194.499 -49.5s96.5 -81.5 126.5 -145.5v436h-360v101h360v288h125v-288h170v-101h-170v-1161h-125z" />
    <glyph glyph-name="Gbreve" unicode="&#x11e;" horiz-adv-x="1673" 
d="M1382 1096c-59.333 92 -132.335 161.668 -219.002 209.001s-184.334 71 -293.001 71c-181.333 0 -329 -61.333 -443 -184s-171 -281.667 -171 -477c0 -87.333 15.167 -169.666 45.5 -246.999s74.5 -146 132.5 -206c58.667 -59.333 124.334 -103.833 197.001 -133.5
s152.334 -44.5 239.001 -44.5c164 0 297.5 48.333 400.5 145s155.833 223 158.5 379h-505v115h651v-16c0 -233.333 -63.667 -416 -191 -548s-302.666 -198 -525.999 -198c-222 0 -401.667 70.667 -539 212s-206 326.666 -206 555.999c0 105.333 17.333 204.833 52 298.5
s84.667 175.167 150 244.5c70.667 75.333 150.5 131.666 239.5 168.999s188.167 56 297.5 56c148.667 0 276 -26.833 382 -80.5s187.667 -132.5 245 -236.5zM563.998 1862l79.002 0.00195312c7.33301 -44.667 26.666 -77.334 57.999 -98.001s77 -31 137 -31
c60.667 0 106.167 10.167 136.5 30.5s49.166 53.166 56.499 98.499h81c-8 -82.667 -33.833 -143.334 -77.5 -182.001s-109.167 -58 -196.5 -58s-152.833 19.333 -196.5 58s-69.5 99.334 -77.5 182.001z" />
    <glyph glyph-name="gbreve" unicode="&#x11f;" horiz-adv-x="1108" 
d="M944 887l-0.00195312 -733.002c0 -116.667 -3.16699 -205.667 -9.5 -267s-16.833 -107 -31.5 -137c-30.667 -66 -77.667 -115.167 -141 -147.5s-143.333 -48.5 -240 -48.5c-118 0 -209.833 22.833 -275.5 68.5s-105.5 114.834 -119.5 207.501h154
c10 -54.667 36.167 -96 78.5 -124s99.833 -42 172.5 -42c54.667 0 103.834 9.66699 147.501 29s76.5 46 98.5 80c14.667 22 25.167 47.5 31.5 76.5s9.5 73.833 9.5 134.5v47v133c-27.333 -63.333 -69.166 -113 -125.499 -149s-120.833 -54 -193.5 -54
c-124.667 0 -224.167 43.333 -298.5 130s-111.5 203 -111.5 349c0 144.667 38 260.834 114 348.501s176.667 131.5 302 131.5c70 0 133.5 -18.167 190.5 -54.5s97.833 -84.5 122.5 -144.5v166h125zM519.998 806.998c-92 0 -164.499 -32.832 -217.499 -98.499
s-79.5 -155.834 -79.5 -270.501c0 -114 25.167 -202.833 75.5 -266.5s120.166 -95.5 209.499 -95.5c94.667 0 170.5 33.667 227.5 101s85.5 158 85.5 272c0 112 -26.667 199.667 -80 263s-127 95 -221 95zM280.999 1284l79.002 0.00195312
c7.33301 -44.667 26.666 -77.334 57.999 -98.001s77 -31 137 -31c60.667 0 106.167 10.167 136.5 30.5s49.166 53.166 56.499 98.499h81c-8 -82.667 -33.833 -143.334 -77.5 -182.001s-109.167 -58 -196.5 -58s-152.833 19.333 -196.5 58s-69.5 99.334 -77.5 182.001z" />
    <glyph glyph-name="Idotaccent" unicode="&#x130;" horiz-adv-x="498" 
d="M182 0v1464h133v-1464h-133zM148 1766c0 28 10.166 52.333 30.499 73s44.166 31 71.499 31c28 0 52 -10.167 72 -30.5s30 -44.833 30 -73.5c0 -28 -10.167 -52.167 -30.5 -72.5s-44.166 -30.5 -71.499 -30.5s-51.166 10.167 -71.499 30.5s-30.5 44.5 -30.5 72.5z" />
    <glyph glyph-name="dotlessi" unicode="&#x131;" horiz-adv-x="471" 
d="M172 0v887h127v-887h-127z" />
    <glyph glyph-name="Lslash" unicode="&#x141;" horiz-adv-x="856" 
d="M193 0v672l-195 -135l-66 79l261 185v663h133v-592l237 166l64 -86l-301 -209v-618h501v-125h-634z" />
    <glyph glyph-name="lslash" unicode="&#x142;" horiz-adv-x="500" 
d="M313 831l152 107l55 -82l-207 -147v-709h-127v635l-149 -109l-57 82l206 148v794h127v-719z" />
    <glyph glyph-name="OE" unicode="&#x152;" horiz-adv-x="2320" 
d="M2181 1464l0.00195312 -125.001h-575v-458h575v-125h-575v-631h575v-125h-698v311c-64.667 -110.667 -150.334 -196 -257.001 -256s-226.667 -90 -360 -90c-68 0 -134.333 8.66699 -199 26s-124.667 43 -180 77c-120.667 72.667 -213.167 166.334 -277.5 281.001
s-96.5 242.667 -96.5 384c0 104.667 18.667 203.167 56 295.5s91.666 174.166 162.999 245.499c72 72.667 154.833 128.334 248.5 167.001s193.167 58 298.5 58c132 0 248.667 -28.333 350 -85s186 -141 254 -253v303h698zM242.002 730.999
c0 -86.667 15.5029 -168.832 46.5029 -246.499s76.833 -148.5 137.5 -212.5c56.667 -60 122.667 -106 198 -138s154.666 -48 237.999 -48c86 0 165.833 15.667 239.5 47s139.167 77 196.5 137c58.667 62.667 103.5 133.5 134.5 212.5s46.5 161.833 46.5 248.5
c0 93.333 -14.333 178.333 -43 255s-71.667 144.667 -129 204c-59.333 62 -126.5 108.833 -201.5 140.5s-156.167 47.5 -243.5 47.5c-82.667 0 -161.334 -15.833 -236.001 -47.5s-141.334 -77.834 -200.001 -138.501c-60.667 -64 -106.5 -134.833 -137.5 -212.5
s-46.5 -160.5 -46.5 -248.5z" />
    <glyph glyph-name="oe" unicode="&#x153;" horiz-adv-x="1841" 
d="M573 76c97.333 0 179.833 35.167 247.5 105.5s101.5 156.5 101.5 258.5c0 103.333 -33.667 190 -101 260s-150 105 -248 105c-97.333 0 -179.666 -35 -246.999 -105s-101 -156.667 -101 -260c0 -102 33.667 -188.167 101 -258.5s149.666 -105.5 246.999 -105.5zM1053 545
h551c-5.33301 82 -32.333 145.833 -81 191.5s-114 68.5 -196 68.5c-74 0 -136.667 -24.333 -188 -73s-80 -111 -86 -187zM1749 442h-704.998c0 -110 27.167 -198.5 81.5 -265.5s124.833 -100.5 211.5 -100.5c68.667 0 128.167 17.667 178.5 53
s91.166 88.666 122.499 159.999l117 -64c-46 -88.667 -102.333 -154.834 -169 -198.501s-144.667 -65.5 -234 -65.5c-90.667 0 -170.167 21.667 -238.5 65s-114.5 101 -138.5 173c-38 -75.333 -92.5 -133.833 -163.5 -175.5s-151.833 -62.5 -242.5 -62.5
c-64.667 0 -125.834 11.833 -183.501 35.5s-109.167 58.167 -154.5 103.5c-45.333 46 -79.833 98 -103.5 156s-35.5 120 -35.5 186c0 64 12 125.167 36 183.5s58.333 109.833 103 154.5s96.167 79.5 154.5 104.5s117.5 37.5 177.5 37.5c96 0 178.667 -19.667 248 -59
s124 -97.666 164 -174.999c27.333 72.667 73.333 129.834 138 171.501s140 62.5 226 62.5c124.667 0 224.167 -41.5 298.5 -124.5s111.5 -194.5 111.5 -334.5v-21z" />
    <glyph glyph-name="Scedilla" unicode="&#x15e;" horiz-adv-x="1020" 
d="M70 246l114.003 60.999c21.333 -72 58.166 -127.833 110.499 -167.5s115.166 -59.5 188.499 -59.5c92.667 0 165 27.333 217 82s78 130.334 78 227.001c0 70.667 -17.5 129.334 -52.5 176.001s-110.167 100.667 -225.5 162c-147.333 78 -245.333 146.667 -294 206
s-73 130.666 -73 213.999c0 104 35.167 188.667 105.5 254s161.5 98 273.5 98c73.333 0 137.166 -15.5 191.499 -46.5s98.5 -77.5 132.5 -139.5l-103 -62c-21.333 42 -51.5 74 -90.5 96s-85.167 33 -138.5 33c-72 0 -129.333 -21.167 -172 -63.5s-64 -99.5 -64 -171.5
c0 -102.667 84.667 -198.334 254 -287.001l70 -37c124.667 -68.667 208 -133.5 250 -194.5s63 -140.167 63 -237.5c0 -131.333 -38.333 -235.5 -115 -312.5s-181 -115.5 -313 -115.5c-96 0 -178.167 23.833 -246.5 71.5s-121.833 118.834 -160.5 213.501zM299.003 -379.001
l-0.00292969 69.998c65.333 -13.333 113.666 -22.166 144.999 -26.499s58 -6.5 80 -6.5c42 0 73.333 7.33301 94 22s31 36.667 31 66c0 30.667 -11.667 53.334 -35 68.001s-58.666 22 -105.999 22c-4 0 -10.667 -0.333008 -20 -1s-16.333 -1 -21 -1v166h61v-100h15
c68.667 0 121.334 -13.167 158.001 -39.5s55 -63.833 55 -112.5c0 -54.667 -18 -95.667 -54 -123s-89.667 -41 -161 -41c-33.333 0 -69.666 3 -108.999 9s-83.666 15.333 -132.999 28z" />
    <glyph glyph-name="scedilla" unicode="&#x15f;" horiz-adv-x="782" 
d="M63 158l116.999 67.001c19.333 -49.333 47.333 -86.5 84 -111.5s81.667 -37.5 135 -37.5c52 0 93.333 13.167 124 39.5s46 61.5 46 105.5c0 68 -60.333 125.667 -181 173c-12.667 4.66699 -22.667 8.66699 -30 12c-93.333 36.667 -158.666 74.5 -195.999 113.5
s-56 87.167 -56 144.5c0 75.333 26.667 137.166 80 185.499s122.333 72.5 207 72.5c72 0 133.333 -15.667 184 -47s87.667 -76 111 -134l-113 -63c-14 42 -37.333 74 -70 96s-72.667 33 -120 33c-42.667 0 -77.834 -12.5 -105.501 -37.5s-41.5 -56.167 -41.5 -93.5
c0 -36.667 13.667 -67 41 -91s84 -50.333 170 -79c97.333 -34 162.833 -71 196.5 -111s50.5 -95.333 50.5 -166c0 -81.333 -29 -146.333 -87 -195s-136 -73 -234 -73c-75.333 0 -140.166 17.167 -194.499 51.5s-93.5 82.833 -117.5 145.5zM179.999 -378.999
l-0.00292969 69.998c65.333 -13.333 113.666 -22.166 144.999 -26.499s58 -6.5 80 -6.5c42 0 73.333 7.33301 94 22s31 36.667 31 66c0 30.667 -11.667 53.334 -35 68.001s-58.666 22 -105.999 22c-4 0 -10.667 -0.333008 -20 -1s-16.333 -1 -21 -1v166h61v-100h15
c68.667 0 121.334 -13.167 158.001 -39.5s55 -63.833 55 -112.5c0 -54.667 -18 -95.667 -54 -123s-89.667 -41 -161 -41c-33.333 0 -69.666 3 -108.999 9s-83.666 15.333 -132.999 28z" />
    <glyph glyph-name="Scaron" unicode="&#x160;" horiz-adv-x="1020" 
d="M70 246l114.003 60.999c21.333 -72 58.166 -127.833 110.499 -167.5s115.166 -59.5 188.499 -59.5c92.667 0 165 27.333 217 82s78 130.334 78 227.001c0 70.667 -17.5 129.334 -52.5 176.001s-110.167 100.667 -225.5 162c-147.333 78 -245.333 146.667 -294 206
s-73 130.666 -73 213.999c0 104 35.167 188.667 105.5 254s161.5 98 273.5 98c73.333 0 137.166 -15.5 191.499 -46.5s98.5 -77.5 132.5 -139.5l-103 -62c-21.333 42 -51.5 74 -90.5 96s-85.167 33 -138.5 33c-72 0 -129.333 -21.167 -172 -63.5s-64 -99.5 -64 -171.5
c0 -102.667 84.667 -198.334 254 -287.001l70 -37c124.667 -68.667 208 -133.5 250 -194.5s63 -140.167 63 -237.5c0 -131.333 -38.333 -235.5 -115 -312.5s-181 -115.5 -313 -115.5c-96 0 -178.167 23.833 -246.5 71.5s-121.833 118.834 -160.5 213.501zM795.003 1958
l-213 -350h-146l-213 350h92l195 -250l193 250h92z" />
    <glyph glyph-name="scaron" unicode="&#x161;" horiz-adv-x="782" 
d="M63 158l116.999 67.001c19.333 -49.333 47.333 -86.5 84 -111.5s81.667 -37.5 135 -37.5c52 0 93.333 13.167 124 39.5s46 61.5 46 105.5c0 68 -60.333 125.667 -181 173c-12.667 4.66699 -22.667 8.66699 -30 12c-93.333 36.667 -158.666 74.5 -195.999 113.5
s-56 87.167 -56 144.5c0 75.333 26.667 137.166 80 185.499s122.333 72.5 207 72.5c72 0 133.333 -15.667 184 -47s87.667 -76 111 -134l-113 -63c-14 42 -37.333 74 -70 96s-72.667 33 -120 33c-42.667 0 -77.834 -12.5 -105.501 -37.5s-41.5 -56.167 -41.5 -93.5
c0 -36.667 13.667 -67 41 -91s84 -50.333 170 -79c97.333 -34 162.833 -71 196.5 -111s50.5 -95.333 50.5 -166c0 -81.333 -29 -146.333 -87 -195s-136 -73 -234 -73c-75.333 0 -140.166 17.167 -194.499 51.5s-93.5 82.833 -117.5 145.5zM675.999 1380l-213 -350h-146
l-213 350h92l195 -250l193 250h92z" />
    <glyph glyph-name="Ydieresis" unicode="&#x178;" horiz-adv-x="1118" 
d="M496 0v674l-486 790h160l393 -671l395 671h152l-481 -790v-674h-133zM637 1766c0 26.667 9.66602 49.667 28.999 69s42.333 29 69 29s49.334 -9.66699 68.001 -29s28 -42.333 28 -69c0 -28 -9 -51 -27 -69s-41 -27 -69 -27s-51.333 9 -70 27s-28 41 -28 69zM286.999 1766
c0 26.667 9.33203 49.665 27.999 68.998s41.334 29 68.001 29s49.667 -9.66699 69 -29s29 -42.333 29 -69c0 -27.333 -9.33301 -50.166 -28 -68.499s-42 -27.5 -70 -27.5s-51 8.83301 -69 26.5s-27 40.834 -27 69.501z" />
    <glyph glyph-name="Zcaron" unicode="&#x17d;" horiz-adv-x="1147" 
d="M25 0l870 1343h-743v121h970l-866 -1341h778v-123h-1009zM858 1958l-213 -350h-146l-213 350h92l195 -250l193 250h92z" />
    <glyph glyph-name="zcaron" unicode="&#x17e;" horiz-adv-x="780" 
d="M23 0l495 776h-461v111h674l-491 -776h505v-111h-722zM676 1380l-213 -350h-146l-213 350h92l195 -250l193 250h92z" />
    <glyph glyph-name="florin" unicode="&#x192;" horiz-adv-x="1180" 
d="M659 825l-88.001 -800c-20.667 -185.333 -52.167 -311 -94.5 -377s-108.166 -99 -197.499 -99c-13.333 0.666992 -27.666 2.16699 -42.999 4.5s-31.666 5.83301 -48.999 10.5l31 118c7.33301 -4 15.666 -7 24.999 -9s21.333 -3 36 -3c46.667 0 81.167 22.667 103.5 68
s43.5 161.333 63.5 348l82 739h-163l10 95h164l20 182c15.333 138 45.166 235.333 89.499 292s111.5 85 201.5 85c24 0 46.333 -2.33301 67 -7s40.667 -12 60 -22l-21 -107c-22 8 -41.667 13.833 -59 17.5s-33 5.5 -47 5.5c-49.333 0 -85.333 -16.333 -108 -49
s-40.667 -107 -54 -223l-18 -174h194l-6 -95h-199z" />
    <glyph glyph-name="circumflex" unicode="&#x2c6;" 
d="M225 1030l213 350h146l213 -350h-92l-193 250l-195 -250h-92z" />
    <glyph glyph-name="caron" unicode="&#x2c7;" 
d="M797 1380l-213 -350h-146l-213 350h92l195 -250l193 250h92z" />
    <glyph glyph-name="breve" unicode="&#x2d8;" 
d="M238 1284l79.002 0.00195312c7.33301 -44.667 26.666 -77.334 57.999 -98.001s77 -31 137 -31c60.667 0 106.167 10.167 136.5 30.5s49.166 53.166 56.499 98.499h81c-8 -82.667 -33.833 -143.334 -77.5 -182.001s-109.167 -58 -196.5 -58s-152.833 19.333 -196.5 58
s-69.5 99.334 -77.5 182.001z" />
    <glyph glyph-name="dotaccent" unicode="&#x2d9;" 
d="M410 1188c0 28 10.166 52.333 30.499 73s44.166 31 71.499 31c28 0 52 -10.167 72 -30.5s30 -44.833 30 -73.5c0 -28 -10.167 -52.167 -30.5 -72.5s-44.166 -30.5 -71.499 -30.5s-51.166 10.167 -71.499 30.5s-30.5 44.5 -30.5 72.5z" />
    <glyph glyph-name="ring" unicode="&#x2da;" 
d="M371 1260c0 -40.667 13.501 -74.832 40.501 -102.499s60.5 -41.5 100.5 -41.5s73.833 14 101.5 42s41.5 62 41.5 102c0 39.333 -13.833 72.666 -41.5 99.999s-61.5 41 -101.5 41c-40.667 0 -74.334 -13.5 -101.001 -40.5s-40 -60.5 -40 -100.5zM264.001 1260
c0 69.333 24 127.833 72 175.5s106.667 71.5 176 71.5s128 -23.833 176 -71.5s72 -106.167 72 -175.5c0 -70 -24 -128.833 -72 -176.5s-106.667 -71.5 -176 -71.5s-128 23.833 -176 71.5s-72 106.5 -72 176.5z" />
    <glyph glyph-name="ogonek" unicode="&#x2db;" 
d="M573 0c-48.667 -43.333 -84.666 -84.332 -107.999 -122.999s-35 -76.334 -35 -113.001c0 -30.667 7.66699 -52.667 23 -66s41 -20 77 -20h84v-112h-79c-76 0 -132 13.333 -168 40s-54 68 -54 124c0 43.333 13.667 85 41 125s76.666 88.333 147.999 145h71z" />
    <glyph glyph-name="tilde" unicode="&#x2dc;" 
d="M803 1294c-16.667 -60 -41.833 -105.667 -75.5 -137s-74.834 -47 -123.501 -47c-10.667 0 -21.334 0.833008 -32.001 2.5s-21.667 4.16699 -33 7.5l-80 27c-8 2.66699 -16.833 4.66699 -26.5 6s-20.167 2 -31.5 2c-20.667 0 -38.5 -5 -53.5 -15
s-27.833 -25.333 -38.5 -46h-88c14.667 58 38.834 102.167 72.501 132.5s75.834 45.5 126.501 45.5c11.333 0 22 -0.666992 32 -2s19 -3.33301 27 -6l78 -27c11.333 -3.33301 22 -5.83301 32 -7.5s19.667 -2.5 29 -2.5c24 0 44.167 5.66699 60.5 17s28.5 28 36.5 50h88z" />
    <glyph glyph-name="hungarumlaut" unicode="&#x2dd;" 
d="M580 1030l168 350h155l-239 -350h-84zM322 1030l147 350h158l-221 -350h-84z" />
    <glyph glyph-name="Omega" unicode="&#x3a9;" horiz-adv-x="1585" 
d="M1452 121v-121h-573v102c145.333 90.667 254.666 193.167 327.999 307.5s110 239.833 110 376.5c0 179.333 -48.833 325.333 -146.5 438s-223.5 169 -377.5 169s-280 -56.333 -378 -169s-147 -258.667 -147 -438c0 -136.667 36.667 -262.167 110 -376.5
s183 -216.833 329 -307.5v-102h-572v121h354c-122 88 -212.5 186.5 -271.5 295.5s-88.5 232.167 -88.5 369.5c0 211.333 62.833 385.333 188.5 522s284.167 205 475.5 205c190.667 0 348.834 -68.333 474.501 -205s188.5 -310.667 188.5 -522
c0 -137.333 -29.5 -260.5 -88.5 -369.5s-149.5 -207.5 -271.5 -295.5h356z" />
    <glyph glyph-name="pi" unicode="&#x3c0;" horiz-adv-x="1155" 
d="M1102 958l-182.002 0.00195312l-119 -565c-9.33301 -41.333 -16.5 -78.333 -21.5 -111s-7.5 -58.334 -7.5 -77.001c0 -39.333 8.16699 -67 24.5 -83s44.5 -24 84.5 -24c18 0 34.5 0.833008 49.5 2.5s29.167 4.16699 42.5 7.5l-25 -108
c-19.333 -6 -36.666 -10.167 -51.999 -12.5s-30 -3.5 -44 -3.5c-61.333 0 -109.833 18 -145.5 54s-53.5 85.333 -53.5 148c0 31.333 3.83301 72.166 11.5 122.499s22.5 126.5 44.5 228.5l88 421h-381l-203 -958h-121l201 958h-39c-36.667 0 -65.167 -10.667 -85.5 -32
s-34.166 -55 -41.499 -101h-121c16.667 90 45 152.167 85 186.5s108.667 51.5 206 51.5h829z" />
    <glyph glyph-name="endash" unicode="&#x2013;" 
d="M0 481h1024v-80h-1024v80z" />
    <glyph glyph-name="emdash" unicode="&#x2014;" horiz-adv-x="2048" 
d="M0 401v80h2048v-80h-2048z" />
    <glyph glyph-name="quoteleft" unicode="&#x2018;" horiz-adv-x="590" 
d="M467 1466l-195 -540l-149 67l262 504z" />
    <glyph glyph-name="quoteright" unicode="&#x2019;" horiz-adv-x="590" 
d="M123 958l194 539l150 -65l-262 -506z" />
    <glyph glyph-name="quotesinglbase" unicode="&#x201a;" horiz-adv-x="590" 
d="M324 254l145 -61l-264 -515l-84 39z" />
    <glyph glyph-name="quotedblleft" unicode="&#x201c;" horiz-adv-x="877" 
d="M772 1466l-194 -540l-150 67l262 504zM449 1466l-195 -540l-148 67l261 504z" />
    <glyph glyph-name="quotedblright" unicode="&#x201d;" horiz-adv-x="877" 
d="M428 958l195 539l149 -65l-262 -506zM106 958l193 539l150 -65l-263 -506z" />
    <glyph glyph-name="quotedblbase" unicode="&#x201e;" horiz-adv-x="877" 
d="M428 -287l195 541l149 -68l-262 -505zM106 -287l193 541l150 -68l-263 -505z" />
    <glyph glyph-name="dagger" unicode="&#x2020;" horiz-adv-x="1042" 
d="M461 -446v1220h-361v115h361v575h123v-575h360v-115h-360v-1220h-123z" />
    <glyph glyph-name="daggerdbl" unicode="&#x2021;" horiz-adv-x="1042" 
d="M459 -446v485h-359v113h359v720h-359v113h359v479h123v-479h362v-113h-362v-720h362v-113h-362v-485h-123z" />
    <glyph glyph-name="bullet" unicode="&#x2022;" horiz-adv-x="1208" 
d="M307 762c0 82 28.999 151.666 86.999 208.999s128 86 210 86c81.333 0 150.833 -28.833 208.5 -86.5s86.5 -127.167 86.5 -208.5s-29.167 -151.166 -87.5 -209.499s-128.166 -87.5 -209.499 -87.5c-82 0 -151.667 29 -209 87s-86 128 -86 210z" />
    <glyph glyph-name="ellipsis" unicode="&#x2026;" horiz-adv-x="2048" 
d="M240 84c0 28.667 9.83301 52.834 29.5 72.501s43.834 29.5 72.501 29.5s52.834 -9.83301 72.501 -29.5s29.5 -43.834 29.5 -72.501s-9.83301 -52.834 -29.5 -72.501s-43.834 -29.5 -72.501 -29.5s-52.834 9.83301 -72.501 29.5s-29.5 43.834 -29.5 72.501zM922 84
c0 28.667 9.83301 52.834 29.5 72.501s43.834 29.5 72.501 29.5s52.834 -9.83301 72.501 -29.5s29.5 -43.834 29.5 -72.501s-9.83301 -52.834 -29.5 -72.501s-43.834 -29.5 -72.501 -29.5s-52.834 9.83301 -72.501 29.5s-29.5 43.834 -29.5 72.501zM1606 84
c0 28.667 9.83301 52.834 29.5 72.501s43.834 29.5 72.501 29.5s52.834 -9.83301 72.501 -29.5s29.5 -43.834 29.5 -72.501s-9.83301 -52.834 -29.5 -72.501s-43.834 -29.5 -72.501 -29.5s-52.834 9.83301 -72.501 29.5s-29.5 43.834 -29.5 72.501z" />
    <glyph glyph-name="perthousand" unicode="&#x2030;" horiz-adv-x="2204" 
d="M1673 336c0 -91.333 15.167 -161.333 45.5 -210s73.833 -73 130.5 -73c56 0 99 24.333 129 73s45 118.667 45 210c0 92.667 -14.5 162.5 -43.5 209.5s-72.5 70.5 -130.5 70.5c-56 0 -99.333 -24.167 -130 -72.5s-46 -117.5 -46 -207.5zM2142 334
c0 -118 -25.667 -209.667 -77 -275s-123.333 -98 -216 -98s-165 32.667 -217 98s-78 157 -78 275s26 210 78 276s124.333 99 217 99s164.667 -33 216 -99s77 -158 77 -276zM965 336c0 -92 14.833 -162.167 44.5 -210.5s72.834 -72.5 129.501 -72.5
c56 0 99.333 24.5 130 73.5s46 118.833 46 209.5c0 92 -15 161.667 -45 209s-73.667 71 -131 71c-56.667 0 -99.834 -24 -129.501 -72s-44.5 -117.333 -44.5 -208zM1434 334c0 -118 -26 -209.667 -78 -275s-124.333 -98 -217 -98s-164.667 32.667 -216 98s-77 157 -77 275
s25.667 210 77 276s123.333 99 216 99s165 -33 217 -99s78 -158 78 -276zM180 1106c0 -92 14.832 -162.167 44.499 -210.5s72.834 -72.5 129.501 -72.5s100.167 24.5 130.5 73.5s45.5 118.833 45.5 209.5c0 92 -14.833 161.667 -44.5 209s-73.5 71 -131.5 71
c-56 0 -99 -24 -129 -72s-45 -117.333 -45 -208zM648.999 1104c0 -118 -26 -210.001 -78 -276.001s-124.333 -99 -217 -99c-92 0 -163.833 32.833 -215.5 98.5s-77.5 157.834 -77.5 276.501c0 118 25.833 210 77.5 276s123.5 99 215.5 99c92.667 0 165 -33 217 -99
s78 -158 78 -276zM269.999 -39.001l840 1518h109l-842 -1518h-107z" />
    <glyph glyph-name="guilsinglleft" unicode="&#x2039;" horiz-adv-x="422" 
d="M295 51l-252 385l244 395l86 -51l-209 -346l215 -332z" />
    <glyph glyph-name="guilsinglright" unicode="&#x203a;" horiz-adv-x="422" 
d="M125 51l-82 51l215 332l-211 346l88 51l244 -395z" />
    <glyph glyph-name="franc" unicode="&#x20a3;" horiz-adv-x="1671" 
d="M182 0v1464h725v-125h-592v-458h570v-125h-570v-756h-133zM1313 709c45.333 76.667 89.8311 130.999 133.498 162.999s94.5 48 152.5 48c17.333 0 34.833 -1.66699 52.5 -5s35.167 -8 52.5 -14l-40 -116c-13.333 4 -27.166 7.33301 -41.499 10s-28.166 4 -41.499 4
c-74 0 -137.167 -34.667 -189.5 -104s-78.5 -155.666 -78.5 -258.999v-436h-123v887h123v-178z" />
    <glyph glyph-name="trademark" unicode="&#x2122;" horiz-adv-x="1706" 
d="M926 1454l174 -440l162 440h102v-530h-59v479l-181 -479h-49l-190 479v-479h-60v530h101zM694 1454v-51h-174v-479h-67v479h-179v51h420z" />
    <glyph glyph-name="partialdiff" unicode="&#x2202;" 
d="M750 578c7.33301 46 12.833 94.1689 16.5 144.502s5.5 103.833 5.5 160.5c0 119.333 -12.667 208.166 -38 266.499s-64 87.5 -116 87.5c-30 0 -63.167 -24.5 -99.5 -73.5s-72.5 -73.5 -108.5 -73.5c-19.333 0 -35.5 6.16699 -48.5 18.5s-19.5 27.833 -19.5 46.5
c0 39.333 20.333 73.333 61 102s90 43 148 43c106.667 0 191.334 -49 254.001 -147s94 -231.667 94 -401c0 -223.333 -43.833 -409 -131.5 -557s-195.5 -222 -323.5 -222c-92.667 0 -167.334 35 -224.001 105s-85 163.333 -85 280c0 115.333 35.667 214.166 107 296.499
s157.333 123.5 258 123.5c64.667 0 117.5 -16.333 158.5 -49s71.5 -83 91.5 -151zM713 459.002c0 83.333 -15.667 146.832 -47 190.499s-77.333 65.5 -138 65.5c-78 0 -141.5 -41.667 -190.5 -125s-73.5 -193.333 -73.5 -330c0 -78 15.833 -137.833 47.5 -179.5
s77.5 -62.5 137.5 -62.5c76 0 139 41.833 189 125.5s75 188.834 75 315.501z" />
    <glyph glyph-name="Delta" unicode="&#x2206;" horiz-adv-x="1335" 
d="M1155 121l-487 1233l-490 -1233h977zM754 1473l592 -1473h-1358l594 1473h172z" />
    <glyph glyph-name="product" unicode="&#x220f;" horiz-adv-x="1491" 
d="M164 1473h1163v-1866h-135v1743h-893v-1743h-135v1866z" />
    <glyph glyph-name="summation" unicode="&#x2211;" horiz-adv-x="1290" 
d="M45 1473h1208v-123h-1038l721 -787l-760 -835h1077v-121h-1243v127l752 829l-717 787v123z" />
    <glyph glyph-name="minus" unicode="&#x2212;" horiz-adv-x="1706" 
d="M1452 651v-82h-1198v82h1198z" />
    <glyph glyph-name="fraction" unicode="&#x2215;" horiz-adv-x="342" 
d="M-342 -39l917 1518h107l-915 -1518h-109z" />
    <glyph glyph-name="periodcentered" unicode="&#x2219;" horiz-adv-x="590" 
d="M193 719c0 28.667 9.83301 52.834 29.5 72.501s43.834 29.5 72.501 29.5s52.834 -9.83301 72.501 -29.5s29.5 -43.834 29.5 -72.501s-9.83301 -53 -29.5 -73s-43.834 -30 -72.501 -30s-52.834 10 -72.501 30s-29.5 44.333 -29.5 73z" />
    <glyph glyph-name="radical" unicode="&#x221a;" horiz-adv-x="1264" 
d="M1264 1626v-61h-129l-596 -1606h-31l-330 907l-110 -39l-15 50l230 79l278 -759l531 1429h172z" />
    <glyph glyph-name="infinity" unicode="&#x221e;" horiz-adv-x="1706" 
d="M889 557c36 -68.667 77.667 -120 125 -154s101.333 -51 162 -51c71.333 0 130 26 176 78s69 118.333 69 199c0 79.333 -21.167 144.833 -63.5 196.5s-95.5 77.5 -159.5 77.5c-58 0 -110.5 -25.833 -157.5 -77.5s-97.5 -141.167 -151.5 -268.5zM819 670
c-34.667 68 -75.834 119.001 -123.501 153.001s-102.167 51 -163.5 51c-72 0 -130.833 -25.833 -176.5 -77.5s-68.5 -117.834 -68.5 -198.501c0 -78.667 21.167 -143.667 63.5 -195s95.5 -77 159.5 -77c58.667 0 111.334 25.333 158.001 76s97 140 151 268zM836 713.001
c44 92.667 92.666 161.499 145.999 206.499s112.333 67.5 177 67.5c86.667 0 159.834 -35.333 219.501 -106s89.5 -159 89.5 -265c0 -110 -26.667 -198.833 -80 -266.5s-123.333 -101.5 -210 -101.5c-62.667 0 -117.834 20.167 -165.501 60.5s-95.167 107.5 -142.5 201.5
c-47.333 -92.667 -96.833 -160.5 -148.5 -203.5s-109.167 -64.5 -172.5 -64.5c-86.667 0 -160.167 35.5 -220.5 106.5s-90.5 158.833 -90.5 263.5c0 110.667 26.667 199.834 80 267.501s123.333 101.5 210 101.5c65.333 0 122.833 -21.5 172.5 -64.5
s94.834 -110.833 135.501 -203.5z" />
    <glyph glyph-name="integral" unicode="&#x222b;" horiz-adv-x="948" 
d="M401 578c0 332 28.833 576.332 86.5 732.999s147.167 235 268.5 235c43.333 0 78.666 -11.667 105.999 -35s41 -53.333 41 -90c0 -30 -9.16699 -53.833 -27.5 -71.5s-43.166 -26.5 -74.499 -26.5c-51.333 0 -85.166 21.5 -101.499 64.5s-27.5 64.5 -33.5 64.5
c-44.667 0 -75.667 -53 -93 -159s-26 -335 -26 -687c0 -339.333 -28.5 -587 -85.5 -743s-146.5 -234 -268.5 -234c-42.667 0 -78 11.5 -106 34.5s-42 51.167 -42 84.5c0 32 9.5 57.833 28.5 77.5s44.5 29.5 76.5 29.5c22 0 40.667 -4.5 56 -13.5
s28.666 -23.167 39.999 -42.5c5.33301 -9.33301 9.5 -24.166 12.5 -44.499s11.167 -30.5 24.5 -30.5c44 0 74.667 55 92 165s26 339.667 26 689z" />
    <glyph glyph-name="approxequal" unicode="&#x2248;" horiz-adv-x="1706" 
d="M1530 485c-70.667 -49.333 -138 -86.167 -202 -110.5s-125.667 -36.5 -185 -36.5c-70.667 0 -169.167 23.5 -295.5 70.5s-220.5 70.5 -282.5 70.5c-55.333 0 -112.333 -11.833 -171 -35.5s-130.667 -65.167 -216 -124.5v93c70 48.667 137 85 201 109s126 36 186 36
c70.667 0 169.167 -23.167 295.5 -69.5s220.5 -69.5 282.5 -69.5c55.333 0 112.333 11.833 171 35.5s130.667 65.167 216 124.5v-93zM1530 808.999c-70 -48.667 -136.831 -85 -200.498 -109s-125.834 -36 -186.501 -36c-70.667 0 -169.167 23.167 -295.5 69.5
s-220.5 69.5 -282.5 69.5c-55.333 0 -112.333 -11.833 -171 -35.5s-130.667 -65.167 -216 -124.5v92c70.667 50 138 87.167 202 111.5s125.667 36.5 185 36.5c70.667 0 169.167 -23.667 295.5 -71s220.5 -71 282.5 -71c54 0 110.167 12 168.5 36s131.166 66 218.499 126v-94
z" />
    <glyph glyph-name="notequal" unicode="&#x2260;" horiz-adv-x="1706" 
d="M1280 1108l-217 -277h389v-79h-440l-219 -283h659v-82h-711l-254 -324l-61 48l215 276h-387v82h436l221 283h-657v79h709l254 326z" />
    <glyph glyph-name="lessequal" unicode="&#x2264;" horiz-adv-x="1706" 
d="M1442 129v-80h-1178v80h1178zM1442 1083l-1043 -350l1043 -352v-88l-1178 405v70l1178 403v-88z" />
    <glyph glyph-name="greaterequal" unicode="&#x2265;" horiz-adv-x="1706" 
d="M1442 129v-80h-1178v80h1178zM1442 768v-70l-1178 -405v88l1043 352l-1043 350v88z" />
    <glyph glyph-name="lozenge" unicode="&#x25ca;" horiz-adv-x="1012" 
d="M506 1409l-385 -817l385 -825l385 825zM506 1653l500 -1061l-500 -1069l-500 1069z" />
    <glyph glyph-name="apple" unicode="&#xf000;" horiz-adv-x="1618" 
d="M836 1216c-0.666992 4 -1.16699 8.66895 -1.5 14.002s-0.5 13 -0.5 23c0 82.667 31.667 159.167 95 229.5s142 114.166 236 131.499c0.666992 -6.66699 1.16699 -14.334 1.5 -23.001s0.5 -21.667 0.5 -39c0 -87.333 -34.5 -165.5 -103.5 -234.5
s-136.833 -103.5 -203.5 -103.5h-8c-2 0 -4.5 0.333008 -7.5 1s-5.83301 1 -8.5 1zM1505 403.002c-76 -164.667 -144.336 -278.834 -205.003 -342.501s-128.667 -95.5 -204 -95.5c-33.333 0 -77.166 11 -131.499 33s-95.166 33 -122.499 33c-30 0 -73.667 -11 -131 -33
s-99.666 -33 -126.999 -33c-42.667 0 -85.5 14.667 -128.5 44s-86.167 73.333 -129.5 132c-68 93.333 -120.5 191.833 -157.5 295.5s-55.5 203.834 -55.5 300.501c0 146 41.667 264.833 125 356.5s191 137.5 323 137.5c45.333 0 97 -11.333 155 -34s99.333 -34 124 -34
c22.667 0 63.167 11.667 121.5 35s109.166 35 152.499 35c73.333 0 139.333 -13.333 198 -40s112.334 -68 161.001 -124c-68 -43.333 -118.5 -91.833 -151.5 -145.5s-49.5 -114.5 -49.5 -182.5c0 -75.333 20 -142 60 -200s97.667 -104 173 -138z" />
    <glyph glyph-name="fi" unicode="&#xf001;" horiz-adv-x="967" 
d="M637 1233c0 26 9.16699 48.167 27.5 66.5s40.5 27.5 66.5 27.5s48.167 -9.16699 66.5 -27.5s27.5 -40.5 27.5 -66.5c0 -27.333 -8.83301 -49.833 -26.5 -67.5s-40.167 -26.5 -67.5 -26.5c-26.667 0 -49 9 -67 27s-27 40.333 -27 67zM668 0v887h127v-887h-127zM193 0
v782.001h-166v105h166v256c0 178 16.667 293.5 50 346.5s94.333 79.5 183 79.5c22 0 43 -1.83301 63 -5.5s38.667 -8.83398 56 -15.501l-23 -108c-16 8 -31.5 14 -46.5 18s-28.833 6 -41.5 6c-43.333 0 -74 -17.167 -92 -51.5s-27 -97.5 -27 -189.5v-336h195v-105h-195v-782
h-122z" />
    <glyph glyph-name="fl" unicode="&#xf002;" horiz-adv-x="977" 
d="M678 0v1550h125v-1550h-125zM193 0v782.001h-166v105h166v256c0 178 16.667 293.5 50 346.5s94.333 79.5 183 79.5c22 0 43 -1.83301 63 -5.5s38.667 -8.83398 56 -15.501l-23 -108c-16 8 -31.5 14 -46.5 18s-28.833 6 -41.5 6c-43.333 0 -74 -17.167 -92 -51.5
s-27 -97.5 -27 -189.5v-336h195v-105h-195v-782h-122z" />
    <glyph glyph-name=".null" horiz-adv-x="0" 
 />
    <glyph glyph-name="nonmarkingreturn" horiz-adv-x="590" 
 />
    </font>
</defs>
</svg>
